<svg version="1.1" viewBox="0.0 0.0 239.66141732283464 241.11548556430446" fill="none" stroke="none" stroke-linecap="square" stroke-miterlimit="10" xmlns:xlink="http://www.w3.org/1999/xlink" xmlns="http://www.w3.org/2000/svg"><clipPath id="p.0"><path d="m0 0l239.66142 0l0 241.11548l-239.66142 0l0 -241.11548z" clip-rule="nonzero"/></clipPath><g clip-path="url(#p.0)"><path fill="#000000" fill-opacity="0.0" d="m0 0l239.66142 0l0 241.11548l-239.66142 0z" fill-rule="evenodd"/><path fill="#666666" fill-opacity="0.3608" d="m230.90929 8.085301l-224.94489 0l224.94489 224.94489z" fill-rule="evenodd"/><path stroke="#fffb00" stroke-width="8.0" stroke-linejoin="round" stroke-linecap="butt" d="m230.90929 8.085301l-224.94489 0l224.94489 224.94489z" fill-rule="evenodd"/><path fill="#434343" d="m1.7911769 237.20341l233.29134 0l-233.29134 -233.29134z" fill-rule="evenodd"/><path stroke="#434343" stroke-width="1.0" stroke-linejoin="round" stroke-linecap="butt" d="m1.7911769 237.20341l233.29134 0l-233.29134 -233.29134z" fill-rule="evenodd"/><path fill="#000000" fill-opacity="0.0" d="m-5.7926507 136.54189l184.69292 0l0 100.66142l-184.69292 0z" fill-rule="evenodd"/><path fill="#fffb00" d="m18.122 166.5976l18.609373 0q5.03125 0 7.453125 2.9375q2.4375 2.9375 2.4375 7.796875q0 2.640625 -0.640625 4.359375q-0.625 1.703125 -1.609375 2.703125q-0.984375 0.984375 -2.25 1.4375q-1.265625 0.4375 -2.578125 0.5l0 0.953125q1.4375 0 2.96875 0.484375q1.53125 0.484375 2.78125 1.59375q1.265625 1.109375 2.046875 2.890625q0.78125 1.765625 0.78125 4.28125q0 2.453125 -0.65625 4.65625q-0.65625 2.1875 -1.921875 3.8125q-1.265625 1.609375 -3.0625 2.546875q-1.796875 0.921875 -4.078125 0.921875l-20.281248 0l0 -41.875zm8.578125 34.609375l9.296873 0q1.453125 0 2.3125 -0.828125q0.875 -0.84375 0.875 -2.828125l0 -3.0q0 -1.984375 -0.875 -2.8125q-0.859375 -0.84375 -2.3125 -0.84375l-9.296873 0l0 10.3125zm0 -17.390625l7.921873 0q1.5 0 2.34375 -0.84375q0.84375 -0.84375 0.84375 -2.765625l0 -2.75q0 -1.921875 -0.84375 -2.765625q-0.84375 -0.84375 -2.34375 -0.84375l-7.921873 0l0 9.96875zm50.765594 24.65625l-2.578125 -10.265625l-12.843754 0l-2.578125 10.265625l-8.21875 0l11.875 -41.875l10.921879 0l11.875 41.875l-8.453125 0zm-7.265625 -26.8125l-1.3125 -7.265625l-0.96875 0l-1.3125 7.265625l-2.46875 9.65625l8.640625 0l-2.578125 -9.65625zm35.161224 27.53125q-3.78125 0 -6.875 -1.140625q-3.078125 -1.140625 -5.28125 -3.65625q-2.1875 -2.515625 -3.421875 -6.59375q-1.21875 -4.09375 -1.21875 -9.96875q0 -5.875 1.21875 -10.046875q1.234375 -4.171875 3.421875 -6.8125q2.203125 -2.640625 5.28125 -3.859375q3.09375 -1.234375 6.875 -1.234375q5.640625 0 8.90625 2.4375q3.28125 2.421875 5.375 7.34375l-7.4375 3.828125q-0.359375 -1.3125 -0.8125 -2.453125q-0.453125 -1.140625 -1.234375 -1.921875q-0.78125 -0.78125 -1.953125 -1.234375q-1.15625 -0.453125 -2.84375 -0.453125q-3.59375 0 -5.640625 2.171875q-2.03125 2.15625 -2.03125 6.46875l0 10.921875q0 4.328125 2.03125 6.484375q2.046875 2.15625 5.640625 2.15625q1.6875 0 2.90625 -0.5q1.234375 -0.515625 2.078125 -1.375q0.84375 -0.875 1.375 -2.046875q0.546875 -1.171875 0.96875 -2.546875l7.078125 4.078125q-1.078125 2.328125 -2.40625 4.1875q-1.3125 1.859375 -3.03125 3.15625q-1.703125 1.296875 -3.921875 1.953125q-2.21875 0.65625 -5.046875 0.65625zm33.418083 -19.265625l-4.859375 6.609375l0 11.9375l-8.578125 0l0 -41.875l8.578125 0l0 13.5625l-0.359375 6.65625l0.96875 0l4.140625 -6.65625l9.109375 -13.5625l9.71875 0l-12.65625 17.453125l13.734375 24.421875l-10.078125 0l-9.71875 -18.546875z" fill-rule="nonzero"/></g></svg>