<?xml version="1.0" encoding="UTF-8"?><svg id="Layer_2" xmlns="http://www.w3.org/2000/svg" xmlns:xlink="http://www.w3.org/1999/xlink" viewBox="0 0 219.84 48.61"><defs><style>.cls-1{fill:url(#linear-gradient-12);}.cls-1,.cls-2,.cls-3,.cls-4,.cls-5,.cls-6,.cls-7,.cls-8,.cls-9,.cls-10,.cls-11,.cls-12,.cls-13{stroke-width:0px;}.cls-2{fill:url(#linear-gradient);}.cls-3{fill:url(#linear-gradient-6);}.cls-4{fill:url(#linear-gradient-11);}.cls-5{fill:url(#linear-gradient-5);}.cls-6{fill:url(#linear-gradient-13);}.cls-7{fill:url(#linear-gradient-2);}.cls-8{fill:url(#linear-gradient-7);}.cls-9{fill:url(#linear-gradient-3);}.cls-10{fill:url(#linear-gradient-9);}.cls-11{fill:url(#linear-gradient-8);}.cls-12{fill:url(#linear-gradient-10);}.cls-13{fill:url(#linear-gradient-4);}</style><linearGradient id="linear-gradient" x1="4.46" y1="30.93" x2="223.43" y2="7.74" gradientUnits="userSpaceOnUse"><stop offset="0" stop-color="#a700c6"/><stop offset="1" stop-color="#5334ca"/></linearGradient><linearGradient id="linear-gradient-2" x1="5.07" y1="36.68" x2="224.04" y2="13.49" xlink:href="#linear-gradient"/><linearGradient id="linear-gradient-3" x1="3.97" y1="26.24" x2="222.93" y2="3.05" xlink:href="#linear-gradient"/><linearGradient id="linear-gradient-4" x1="4.58" y1="32.01" x2="223.54" y2="8.82" xlink:href="#linear-gradient"/><linearGradient id="linear-gradient-5" x1="4.13" y1="27.79" x2="223.1" y2="4.59" xlink:href="#linear-gradient"/><linearGradient id="linear-gradient-6" x1="5.72" y1="42.81" x2="224.69" y2="19.62" xlink:href="#linear-gradient"/><linearGradient id="linear-gradient-7" x1="5.99" y1="45.33" x2="224.95" y2="22.14" xlink:href="#linear-gradient"/><linearGradient id="linear-gradient-8" x1="6.05" y1="45.9" x2="225.01" y2="22.71" xlink:href="#linear-gradient"/><linearGradient id="linear-gradient-9" x1="7.06" y1="55.48" x2="226.03" y2="32.29" xlink:href="#linear-gradient"/><linearGradient id="linear-gradient-10" x1="8.1" y1="65.3" x2="227.07" y2="42.11" xlink:href="#linear-gradient"/><linearGradient id="linear-gradient-11" x1="3.51" y1="21.97" x2="222.48" y2="-1.22" xlink:href="#linear-gradient"/><linearGradient id="linear-gradient-12" x1="2.4" y1="11.47" x2="221.37" y2="-11.72" xlink:href="#linear-gradient"/><linearGradient id="linear-gradient-13" x1="3.81" y1="24.75" x2="222.77" y2="1.56" xlink:href="#linear-gradient"/></defs><g id="Color"><path class="cls-2" d="m68.08,12.08v1.8c-1.85-1.13-4.02-1.79-6.34-1.79-6.71,0-12.17,5.46-12.17,12.17s5.46,12.17,12.17,12.17c2.32,0,4.5-.65,6.34-1.79v1.8h5.87V12.08h-5.87Zm-6.34,18.48c-3.48,0-6.3-2.82-6.3-6.3s2.82-6.3,6.3-6.3,6.3,2.82,6.3,6.3-2.82,6.3-6.3,6.3Z"/><path class="cls-7" d="m122.96,12.08v1.8c-1.85-1.13-4.02-1.79-6.34-1.79-6.71,0-12.17,5.46-12.17,12.17s5.46,12.17,12.17,12.17c2.32,0,4.5-.65,6.34-1.79v1.8h5.87V12.08h-5.87Zm-6.34,18.48c-3.48,0-6.3-2.82-6.3-6.3s2.82-6.3,6.3-6.3,6.3,2.82,6.3,6.3-2.82,6.3-6.3,6.3Z"/><rect class="cls-9" x="76.78" width="5.87" height="36.43"/><rect class="cls-13" x="131.89" width="5.87" height="36.43"/><path class="cls-5" d="m91.36,24.25h0c6.71,0,12.17-5.46,12.17-12.17h-5.87c0,3.48-2.82,6.3-6.3,6.3V0h-5.87v36.43h5.87v-6.31c3.48,0,6.3,2.82,6.3,6.3h5.87c0-6.71-5.46-12.17-12.17-12.17Z"/><path class="cls-3" d="m180.67,12.13c-2.31,0-4.46.64-6.3,1.76v-1.77h-5.87v24.31h5.87v-12.13c0-3.48,2.82-6.3,6.3-6.3s6.3,2.82,6.3,6.3v12.13h5.87v-12.13c0-6.71-5.46-12.17-12.17-12.17Z"/><path class="cls-8" d="m159.32,12.12v12.13c0,3.48-2.82,6.3-6.3,6.3s-6.3-2.82-6.3-6.3v-12.13h-5.87v12.13c0,6.71,5.46,12.17,12.17,12.17,2.31,0,4.46-.64,6.3-1.76v1.77c0,3.48-2.82,6.3-6.3,6.3v5.87c6.71,0,12.17-5.46,12.17-12.17V12.12h-5.87Z"/><path class="cls-11" d="m195.5,24.26c0,4.5,2.46,8.44,6.11,10.55,1.79,1.03,3.86,1.63,6.07,1.63h6.07v-5.87h-6.07c-2.43,0-4.53-1.37-5.58-3.38h17.75v-2.93c0-1.01-.13-2-.36-2.94-1.32-5.3-6.11-9.23-11.81-9.23-6.71,0-12.17,5.46-12.17,12.17m6.6-2.94c1.06-2,3.15-3.36,5.57-3.36s4.52,1.36,5.57,3.36h-11.15Z"/><polygon class="cls-10" points="149.81 42.74 49.56 42.74 49.56 48.61 149.81 48.61 149.81 48.61 149.81 42.74 149.81 42.74"/><path class="cls-12" d="m219.84,42.74h-52.83c-1.05,2.32-2.66,4.33-4.65,5.87h57.48v-5.87Z"/><path class="cls-4" d="m14.58,34.2l-5.2-3,7.64-13.24c.77-1.34-.19-3.02-1.74-3.02H0v-6h15.28c6.17,0,10.02,6.68,6.94,12.02l-7.64,13.24Z"/><path class="cls-1" d="m24.98.25c1.93,1.12,3.68,2.58,5.14,4.34.44.54.84,1.09,1.22,1.66h0c.23.35.47.7.67,1.05.21.36.39.73.58,1.11h0c.3.61.58,1.24.82,1.89.39,1.05.69,2.13.9,3.24l.03.16c.07.43.13.87.18,1.36v.08c.02.09.03.19.04.27.04.54.06,1.02.06,1.48l6.15-10.64L44.23.25h-19.25Z"/><path class="cls-6" d="m31.96,15.63c0-.1-.02-.21-.03-.31-.04-.39-.09-.78-.16-1.17,0-.05-.02-.1-.02-.15-.18-.95-.43-1.88-.77-2.8-.33-.89-.73-1.76-1.22-2.6-.49-.84-1.04-1.63-1.65-2.36C24.97,2.45,20.35.24,15.28.24H0v6h15.28c3.87,0,7.34,2,9.28,5.36s1.94,7.36,0,10.71l-7.64,13.24-1.35,2.34-3,5.2-1.3,2.22,5.21,3.02,4.29-7.43,1.35-2.34,7.64-13.24s.03-.06.04-.08h0c.92-1.62,1.56-3.34,1.91-5.09.01-.05.02-.11.03-.16.06-.3.11-.59.15-.89.02-.15.03-.3.04-.45.02-.2.05-.41.06-.61.02-.36.04-.71.04-1.07,0-.44-.02-.89-.06-1.33Z"/></g></svg>