<svg version="1.1" id="Layer_1" xmlns="http://www.w3.org/2000/svg" xmlns:xlink="http://www.w3.org/1999/xlink" x="0px" y="0px"
	 width="100%" viewBox="0 0 395 372" enable-background="new 0 0 395 372" xml:space="preserve">
<path fill="#FEFEF6" opacity="1.000000" stroke="none" 
	d="
M396.000000,188.000000 
	C396.000000,249.649002 396.000000,311.298004 396.000000,372.973511 
	C264.388702,372.973511 132.777390,372.973511 1.083039,372.973511 
	C1.083039,249.090912 1.083039,125.181755 1.083039,1.136298 
	C132.666580,1.136298 264.333252,1.136298 396.000000,1.136298 
	C396.000000,58.764206 396.000000,116.414253 395.597412,174.481247 
	C388.528503,172.989227 385.193451,173.641876 382.268860,178.526398 
	C381.207245,180.299454 381.293457,183.303665 381.978455,185.374878 
	C382.390167,186.619736 384.901337,187.668579 386.587311,187.885345 
	C389.678680,188.282822 392.857574,187.999481 396.000000,188.000000 
M372.017761,136.200409 
	C371.958527,134.819992 371.899292,133.439560 372.380157,131.709732 
	C371.994598,130.805084 371.609009,129.900436 370.890015,128.291656 
	C368.202179,114.679375 360.310883,104.539787 350.464355,96.109825 
	C351.223541,95.813675 352.189056,95.712883 352.695801,95.177696 
	C353.555786,94.269348 354.392212,93.150482 354.670197,91.984581 
	C354.763458,91.593399 352.794983,90.100372 352.345306,90.315552 
	C351.374878,90.779938 350.564911,91.928024 350.089417,92.977654 
	C349.639618,93.970535 349.701385,95.195160 348.875732,96.328621 
	C347.585083,95.497559 346.294464,94.666504 345.006317,93.025002 
	C344.823059,91.378815 344.639801,89.732628 344.535828,88.798546 
	C340.744843,89.272888 337.873810,89.632126 334.302612,90.122093 
	C333.871399,89.944366 333.440186,89.766647 332.892059,89.054222 
	C332.246582,89.078300 331.601074,89.102379 330.282898,89.310127 
	C329.856628,89.144157 329.430389,88.978188 329.009857,88.045769 
	C329.009857,85.794502 329.009857,83.543243 329.009857,81.291977 
	C328.491577,80.855721 327.973297,80.419456 327.455048,79.983192 
	C323.667969,88.929260 316.416992,86.853996 309.863831,86.994980 
	C308.538971,87.023491 307.158539,86.817757 305.909363,87.135414 
	C305.162018,87.325462 304.619812,88.322296 304.031708,89.801445 
	C303.940704,91.199745 303.849670,92.598038 303.042694,94.174332 
	C299.017914,99.670052 301.298676,105.797424 301.499420,111.647263 
	C301.584320,114.122185 302.966095,116.552597 304.021240,119.907219 
	C304.047913,162.953812 304.076752,206.000412 304.087799,249.047012 
	C304.088043,250.030487 303.887787,251.014008 303.025604,252.224716 
	C302.687714,252.925613 302.057983,253.625290 302.054993,254.327606 
	C301.994507,268.538239 301.969879,282.749451 302.078766,296.959473 
	C302.086548,297.978271 303.176575,298.988800 304.025177,300.892212 
	C303.938324,304.593781 303.851501,308.295349 303.047546,312.202698 
	C301.744904,314.948944 300.535583,317.686371 304.062378,320.902496 
	C304.062378,327.146698 304.062378,333.390869 304.062378,340.082153 
	C317.227081,339.650146 329.811707,341.591248 341.945374,336.892029 
	C345.598145,342.767853 346.793304,343.062500 352.211304,339.608948 
	C352.858765,339.196259 353.761810,339.042603 354.553192,339.021271 
	C358.696899,338.909668 359.735840,336.206543 358.846954,332.990112 
	C358.330475,331.121277 356.336273,329.660858 355.240234,327.403931 
	C356.843079,325.941467 358.445923,324.479004 360.941437,323.013153 
	C363.769226,323.013153 366.597015,323.013153 369.206543,323.013153 
	C367.477478,320.468536 366.172516,318.548065 364.926208,315.937500 
	C366.747650,311.628021 368.569092,307.318573 370.916992,302.904083 
	C370.939148,302.267639 370.961304,301.631195 370.894012,300.310638 
	C371.030334,299.876343 371.166656,299.442047 372.020050,299.027557 
	C373.034821,299.926910 373.980133,300.924652 375.080933,301.702209 
	C376.666168,302.821960 378.364441,303.781647 380.014496,304.809631 
	C381.009552,302.754883 382.676178,300.738068 382.795074,298.633820 
	C382.896973,296.830170 381.225525,293.323700 380.341431,293.324707 
	C374.193024,293.331573 373.946228,289.646881 373.954437,285.018127 
	C374.032745,240.786652 373.965942,196.554901 374.064697,152.323486 
	C374.073090,148.573303 374.644958,144.741302 375.563110,141.100677 
	C376.401520,137.776276 375.377686,136.760406 372.017761,136.200409 
M26.166327,127.850792 
	C25.519707,133.237915 24.873087,138.625046 23.450769,143.889160 
	C22.632050,141.351532 21.912970,138.775269 20.950911,136.293198 
	C20.496733,135.121445 19.556980,133.225159 18.871790,133.240097 
	C17.303574,133.274323 15.020818,133.840973 14.338962,134.977661 
	C12.292317,138.389496 12.874719,141.909912 15.534606,144.983932 
	C16.363865,145.942291 17.743776,146.855179 17.874714,147.912338 
	C18.447605,152.537766 21.146362,152.013306 24.565386,151.673477 
	C24.571369,162.820160 24.520697,173.967194 24.593645,185.113449 
	C24.841799,223.029877 25.133574,260.946045 24.719725,299.142670 
	C24.022257,300.816345 23.324791,302.490051 22.627325,304.163727 
	C24.175322,304.742462 25.723318,305.321198 27.813820,306.333893 
	C28.998562,309.182983 30.183304,312.032104 30.504271,314.944733 
	C26.258778,315.987793 25.840046,317.298706 28.504822,320.551697 
	C29.933378,319.386475 31.356089,318.226013 33.348236,317.442841 
	C36.944447,321.502502 40.540653,325.562195 44.049820,330.426941 
	C42.579288,337.030518 38.621887,329.066559 36.227798,332.028046 
	C37.432468,333.757233 38.552956,335.728058 40.021820,337.391174 
	C42.368996,340.048737 45.364662,339.601532 47.233585,336.466095 
	C47.905853,335.338287 48.428185,334.121063 49.728306,333.002472 
	C63.146324,341.322540 77.913277,340.317627 93.048882,339.721069 
	C93.048882,337.743866 93.048470,336.268677 93.048950,334.793518 
	C93.057549,308.310699 93.062119,281.827881 93.075798,255.345062 
	C93.104439,199.882187 93.137886,144.419312 93.864807,88.892220 
	C95.476341,88.509163 97.087883,88.126106 98.699417,87.743050 
	C98.980118,89.129570 99.816208,90.692795 99.441406,91.870758 
	C98.110016,96.055267 99.722366,99.270912 103.351997,100.257866 
	C105.397148,100.813965 108.190353,98.619026 110.998642,97.526398 
	C110.998642,98.516182 110.998680,100.275978 110.998642,102.035782 
	C110.997978,138.190582 110.997330,174.345367 110.996628,210.500168 
	C110.996468,218.816238 110.995544,218.971100 102.526375,218.925110 
	C99.090538,218.906479 97.815460,219.895844 97.931366,223.450638 
	C98.164696,230.607330 98.052017,237.777512 97.980011,244.941101 
	C97.940002,248.921936 97.589859,252.900223 97.572006,256.880554 
	C97.555740,260.508698 97.799309,264.138000 97.928352,267.766815 
	C98.732910,267.904083 99.537468,268.041382 100.342026,268.178650 
	C100.894516,266.480835 101.875847,264.795044 101.923698,263.083130 
	C102.109818,256.423828 101.996498,249.756271 102.000542,243.091797 
	C102.005058,235.658920 103.157913,234.809265 110.996330,236.952606 
	C110.996330,238.769928 110.996353,240.737549 110.996323,242.705185 
	C110.995804,273.361786 110.961029,304.018494 111.082924,334.674652 
	C111.089966,336.445465 112.370735,338.211273 113.984856,339.888397 
	C136.765610,339.991364 159.546356,340.094330 182.165924,341.117218 
	C183.130859,342.074127 184.046097,343.790344 185.069305,343.857330 
	C189.658951,344.157837 194.280167,343.936005 198.888290,344.009399 
	C201.716370,344.054413 202.245651,342.565948 202.553192,339.964325 
	C224.700836,340.043243 246.848480,340.122162 268.993561,341.010986 
	C268.802826,342.637207 269.126465,344.608612 268.314758,345.818115 
	C266.602264,348.369904 266.793060,350.547180 269.472595,351.404419 
	C271.025452,351.901215 273.174164,350.535645 275.054718,350.008148 
	C274.506531,349.600128 273.958344,349.192108 273.410156,348.784088 
	C273.274780,345.924744 273.139374,343.065399 273.897675,339.957275 
	C277.490112,339.957275 281.082550,339.957275 284.981903,339.957275 
	C284.981903,337.709290 284.982574,336.233185 284.981842,334.757080 
	C284.969208,309.778259 284.933807,284.799469 284.948181,259.820648 
	C284.980957,202.870575 285.038086,145.920517 285.505890,88.639900 
	C285.467224,88.243233 285.428528,87.846573 285.389862,87.449905 
	C284.916290,87.660988 284.442719,87.872070 283.062622,88.319656 
	C278.488708,88.319656 273.914764,88.319656 268.882233,88.319656 
	C268.882233,80.487175 268.882233,73.263908 269.542542,65.766212 
	C270.592682,64.349655 272.591949,62.866497 272.498169,61.530201 
	C272.293884,58.618641 269.874603,57.627563 266.546906,57.499538 
	C262.678802,48.573631 256.002747,42.659664 247.080276,38.510155 
	C249.359787,37.045971 251.639282,35.581787 253.918793,34.117607 
	C253.894241,33.501358 253.869690,32.885109 253.845139,32.268864 
	C249.657104,31.760248 245.400879,30.521812 241.296234,30.905409 
	C234.247238,31.564165 232.570404,30.758251 228.307083,25.472143 
	C226.835434,23.647455 222.702850,23.114283 219.986588,23.480558 
	C218.449722,23.687794 216.689941,26.756706 216.155609,28.827053 
	C215.350922,31.944889 217.523071,33.867771 220.529144,34.233936 
	C224.278107,34.690586 228.110153,34.530617 231.832260,35.111477 
	C233.396011,35.355511 234.770004,36.815479 235.413849,37.933914 
	C226.945068,37.847996 218.476288,37.762074 210.027542,36.956116 
	C210.384964,34.913628 210.742401,32.871140 211.099823,30.828653 
	C209.235794,30.561985 207.371780,30.295317 205.010574,29.957520 
	C206.282867,33.249702 207.137436,35.460999 207.078842,37.890484 
	C195.616058,37.873718 184.143463,37.560379 172.693817,37.939926 
	C164.467087,38.212635 156.271027,39.410606 148.041031,39.420303 
	C149.224152,38.268559 150.478271,37.179520 151.568176,35.945461 
	C152.458130,34.937798 153.669998,33.796043 153.757309,32.639614 
	C153.819290,31.818657 152.062469,29.997383 151.433563,30.129324 
	C147.752426,30.901592 144.164429,32.117859 140.545013,33.184315 
	C141.144165,34.440426 141.583282,35.811325 142.381714,36.924488 
	C143.454285,38.419815 144.804382,39.716076 145.643219,41.641537 
	C138.202911,45.422043 133.756775,51.833794 129.480499,59.034813 
	C125.611893,58.371822 126.685440,55.674030 127.762856,53.767536 
	C129.603790,50.510029 132.010681,47.574440 134.142487,44.477901 
	C134.734360,43.618191 135.800644,42.437294 135.564499,41.816177 
	C135.256073,41.004978 133.736618,39.977200 132.969620,40.139091 
	C130.216797,40.720154 127.377365,41.417667 124.920166,42.727020 
	C122.378601,44.081337 120.474792,47.097298 117.875313,47.765606 
	C114.271858,48.692039 112.254982,49.947964 111.956253,53.807491 
	C111.645203,57.826191 112.654221,60.640762 117.012726,61.559479 
	C118.096588,61.787945 119.051239,62.629391 120.765251,63.575424 
	C119.338905,64.352478 118.814659,64.875092 118.272560,64.894325 
	C115.125282,65.005997 112.163467,66.080971 112.228951,69.472855 
	C112.320862,74.233681 110.015366,79.502762 114.254379,83.677467 
	C114.807632,84.222328 115.653671,84.767365 116.380096,84.789612 
	C120.449547,84.914230 124.523903,84.878349 128.830307,85.873955 
	C127.874329,86.685768 126.950249,88.146439 125.956749,88.195290 
	C121.991539,88.390282 118.004730,88.146019 113.630341,87.570511 
	C112.333206,89.208809 111.036079,90.847115 109.738945,92.485413 
	C109.391769,90.515312 109.781532,88.842270 110.374489,87.244629 
	C111.438126,84.378731 111.183853,82.488693 107.594978,81.883186 
	C106.571297,81.710480 105.224838,80.263443 104.986107,79.187775 
	C104.045303,74.948662 101.516640,72.753822 97.329918,73.189270 
	C93.036087,73.635864 90.242142,75.821686 90.939026,80.810585 
	C91.073174,81.770927 90.471291,82.834091 90.231033,83.764336 
	C87.207405,82.699287 84.637604,81.718475 82.020294,80.887276 
	C75.784981,78.907097 74.077362,80.177956 74.167496,86.216743 
	C72.665939,87.027504 71.326439,87.750771 69.221016,88.838936 
	C66.202263,89.461510 63.183514,90.084084 60.058727,89.881805 
	C59.544315,88.333099 59.292896,86.622078 58.458809,85.270676 
	C56.892845,82.733475 54.563015,80.887383 51.491993,82.469902 
	C48.434780,84.045303 48.445423,86.621071 49.956467,89.584587 
	C50.720634,91.083298 50.672607,92.996140 50.645000,95.075958 
	C50.645000,95.075958 50.149357,95.067001 49.504986,94.753777 
	C48.546970,93.635201 47.791870,91.989494 46.582478,91.523964 
	C44.851082,90.857475 42.149570,90.206070 41.006374,91.067139 
	C38.974491,92.597603 40.002892,94.273651 42.345047,95.455154 
	C43.305580,95.939697 43.520470,97.902359 43.771549,99.770660 
	C41.490261,101.837288 39.208973,103.903923 36.349197,105.658745 
	C33.951584,103.472466 36.265961,102.880905 37.515049,101.609886 
	C39.785511,99.299568 40.127003,97.120651 36.396866,95.632515 
	C30.384205,93.233742 23.653011,96.268539 21.989159,102.508751 
	C21.167358,105.590881 19.943609,107.075424 16.345341,107.286041 
	C14.490623,107.394608 11.819259,109.997276 11.260392,111.967522 
	C10.409195,114.968353 10.112536,119.078331 14.690865,119.959000 
	C18.613792,120.713600 20.670847,122.637253 20.485565,126.392273 
	C22.601946,126.629631 24.327652,126.823174 26.166327,127.850792 
M10.929404,170.833969 
	C14.932188,170.635117 16.191174,172.926987 15.992696,176.473740 
	C15.618994,183.151733 14.731889,189.769272 18.031977,196.211014 
	C19.080551,198.257828 18.223824,201.292465 18.199724,203.874695 
	C18.144762,209.764053 16.989237,215.782791 20.253004,221.324738 
	C20.851088,219.724548 20.987511,218.138092 20.989931,216.551422 
	C21.008068,204.663177 21.410988,192.755112 20.840342,180.894287 
	C20.515333,174.139069 18.777319,167.416550 17.230160,160.783218 
	C16.894522,159.344177 14.428844,157.186035 13.335983,157.396210 
	C11.154812,157.815659 8.036899,159.257660 7.482470,160.978561 
	C6.426721,164.255539 5.853141,168.344360 10.929404,170.833969 
M13.999771,240.436493 
	C13.999731,235.799667 14.059083,231.161667 13.967409,226.526657 
	C13.935359,224.906189 13.934134,223.061584 13.177676,221.745255 
	C12.495479,220.558136 10.736684,219.219955 9.572162,219.321289 
	C8.626155,219.403595 7.149668,221.505234 7.122499,222.738098 
	C6.918231,232.007095 6.936064,241.284317 7.120471,250.554260 
	C7.142728,251.673050 8.441378,253.488541 9.390897,253.663208 
	C10.335793,253.837051 12.335503,252.528473 12.566473,251.558792 
	C13.354639,248.249908 13.567418,244.803955 13.999771,240.436493 
M179.834335,26.018312 
	C177.903152,21.631987 173.970993,22.947897 170.743149,23.235603 
	C169.431290,23.352531 167.631943,25.239557 167.259384,26.641411 
	C166.878250,28.075579 167.640488,31.108408 168.481461,31.340239 
	C171.529617,32.180515 174.872543,32.551765 177.987167,32.162659 
	C178.853470,32.054436 179.315323,28.708691 179.834335,26.018312 
M153.619629,346.041748 
	C152.449112,347.924957 150.248306,349.906219 150.415421,351.662109 
	C150.564423,353.227570 153.246216,355.579895 154.964523,355.722168 
	C157.416473,355.925262 160.216156,354.767883 162.405396,353.433655 
	C162.998749,353.072021 162.394379,349.711243 161.519485,348.202789 
	C159.989487,345.564789 157.538452,344.242554 153.619629,346.041748 
M7.039758,199.156952 
	C7.805729,202.308609 10.375702,203.164108 11.962440,200.944290 
	C13.458872,198.850800 13.297994,195.496918 13.543019,192.669479 
	C13.578188,192.263626 11.071943,191.154480 10.968253,191.292465 
	C9.521372,193.217819 8.273259,195.294739 7.022847,197.362595 
	C6.876946,197.603882 7.006011,198.011429 7.039758,199.156952 
M7.021026,283.975708 
	C8.271193,285.137299 9.521360,286.298889 10.771535,287.460480 
	C11.761992,285.189606 13.452246,282.931274 13.493331,280.643341 
	C13.520076,279.153961 11.147275,277.621460 9.849449,276.108276 
	C8.899995,277.963257 7.915365,279.801666 7.029029,281.686310 
	C6.838332,282.091827 7.002542,282.664246 7.021026,283.975708 
M97.869316,287.391144 
	C97.943810,291.438293 97.933479,295.490479 98.172089,299.527924 
	C98.214333,300.242798 99.294029,300.896362 99.894638,301.578217 
	C100.576057,300.801971 101.792419,300.060669 101.845802,299.243408 
	C102.070709,295.799957 102.185677,292.306000 101.785629,288.895660 
	C101.686462,288.050293 99.506699,287.448975 97.869316,287.391144 
M322.932922,348.941315 
	C322.997101,348.385712 323.322113,347.521820 323.085571,347.321686 
	C320.386414,345.038361 314.568787,345.537140 310.357849,349.315582 
	C315.123871,349.315582 318.689484,349.315582 322.932922,348.941315 
M122.067711,345.212036 
	C122.434128,346.077271 122.800552,346.942535 123.166962,347.807770 
	C123.681953,347.537018 124.196945,347.266296 124.711952,346.995575 
	C124.060699,346.353821 123.409447,345.712067 122.067711,345.212036 
z"/>
<path fill="#FBFAF3" opacity="1.000000" stroke="none" 
	d="
M396.000000,187.536819 
	C392.857574,187.999481 389.678680,188.282822 386.587311,187.885345 
	C384.901337,187.668579 382.390167,186.619736 381.978455,185.374878 
	C381.293457,183.303665 381.207245,180.299454 382.268860,178.526398 
	C385.193451,173.641876 388.528503,172.989227 395.597412,174.949097 
	C396.000000,179.024551 396.000000,183.049088 396.000000,187.536819 
z"/>
<path fill="#111619" opacity="1.000000" stroke="none" 
	d="
M246.982544,39.260113 
	C256.002747,42.659664 262.678802,48.573631 266.793213,58.130650 
	C267.653748,61.188057 268.268005,63.614353 268.882233,66.040649 
	C268.882233,73.263908 268.882233,80.487175 268.882233,88.319656 
	C273.914764,88.319656 278.488708,88.319656 283.642883,88.411980 
	C284.483124,88.710442 284.770508,88.865822 285.085297,88.970444 
	C285.038086,145.920517 284.980957,202.870575 284.948181,259.820648 
	C284.933807,284.799469 284.969208,309.778259 284.981842,334.757080 
	C284.982574,336.233185 284.981903,337.709290 284.981903,339.957275 
	C281.082550,339.957275 277.490112,339.957275 273.063110,339.949524 
	C271.151062,340.028168 270.073608,340.114594 268.996124,340.201050 
	C246.848480,340.122162 224.700836,340.043243 201.709473,339.964722 
	C194.686203,340.042511 188.506668,340.119904 182.327118,340.197296 
	C159.546356,340.094330 136.765610,339.991364 113.393379,339.480408 
	C112.725845,338.247162 112.583122,337.421875 112.583191,336.596588 
	C112.590683,255.253784 112.601494,173.910980 112.684891,92.568253 
	C112.686432,91.066483 113.559494,89.565613 114.025909,88.064323 
	C118.004730,88.146019 121.991539,88.390282 125.956749,88.195290 
	C126.950249,88.146439 127.874329,86.685768 128.848541,85.005211 
	C128.812119,79.423447 128.757477,74.710419 128.837646,69.637833 
	C128.920700,68.519783 128.868958,67.761314 128.971863,66.648087 
	C129.105469,65.529587 129.084396,64.765823 129.226730,63.674259 
	C129.473862,62.625980 129.557587,61.905514 129.838135,60.976692 
	C130.121002,60.215199 130.207047,59.662052 130.293091,59.108906 
	C133.756775,51.833794 138.202911,45.422043 146.135651,41.386864 
	C147.105804,40.820068 147.583557,40.507946 148.061295,40.195820 
	C156.271027,39.410606 164.467087,38.212635 172.693817,37.939926 
	C184.143463,37.560379 195.616058,37.873718 207.864990,37.893623 
	C209.103271,37.823231 209.555389,37.749691 210.007507,37.676155 
	C218.476288,37.762074 226.945068,37.847996 236.177460,37.937126 
	C240.288223,38.380260 243.635376,38.820187 246.982544,39.260113 
M238.754211,63.955097 
	C235.104553,63.826988 231.455032,63.593189 227.805191,63.588154 
	C206.181717,63.558319 184.558090,63.551411 162.934677,63.605656 
	C156.620804,63.621494 153.017120,66.058899 152.545761,71.323990 
	C152.062012,76.727600 152.438477,82.208206 152.438477,88.002319 
	C183.580612,88.002319 214.219315,88.002319 244.873810,88.002319 
	C245.033051,87.237366 245.209396,86.765747 245.217712,86.291191 
	C245.287567,82.300140 245.264587,78.306595 245.391266,74.317657 
	C245.537476,69.713898 243.879272,66.224831 238.754211,63.955097 
M228.672241,207.279831 
	C232.498917,207.306396 236.325623,207.358383 240.152267,207.353836 
	C246.706863,207.346054 251.166809,203.769409 251.258270,198.490005 
	C251.356049,192.846283 247.091049,189.293228 240.058472,189.286865 
	C211.939240,189.261398 183.819977,189.255417 155.700729,189.268524 
	C148.940033,189.271683 144.475494,193.134949 144.654785,198.703766 
	C144.828369,204.095062 149.092560,207.392624 155.843735,207.381912 
	C179.802979,207.343887 203.762222,207.312637 228.672241,207.279831 
z"/>
<path fill="#101519" opacity="1.000000" stroke="none" 
	d="
M25.408693,298.862305 
	C25.133574,260.946045 24.841799,223.029877 24.593645,185.113449 
	C24.520697,173.967194 24.571369,162.820160 24.556528,150.880035 
	C24.440601,148.061798 24.333534,146.036987 24.226467,144.012177 
	C24.873087,138.625046 25.519707,133.237915 26.331116,127.151489 
	C29.973166,119.624977 33.450424,112.797760 36.927681,105.970551 
	C39.208973,103.903923 41.490261,101.837288 44.255062,99.403114 
	C46.542168,97.712715 48.345764,96.389854 50.149357,95.067001 
	C50.149357,95.067001 50.645000,95.075958 51.159824,94.873611 
	C54.504688,93.349724 57.334728,92.028191 60.164764,90.706657 
	C63.183514,90.084084 66.202263,89.461510 70.064789,88.749596 
	C78.328827,88.758987 85.749092,88.857712 93.169365,88.956436 
	C93.137886,144.419312 93.104439,199.882187 93.075798,255.345062 
	C93.062119,281.827881 93.057549,308.310699 93.048950,334.793518 
	C93.048470,336.268677 93.048882,337.743866 93.048882,339.721069 
	C77.913277,340.317627 63.146324,341.322540 49.211754,332.685181 
	C47.175751,331.452576 45.656303,330.537231 44.136856,329.621887 
	C40.540653,325.562195 36.944447,321.502502 33.061592,316.978149 
	C32.305981,315.969360 31.837009,315.425262 31.368042,314.881195 
	C30.183304,312.032104 28.998562,309.182983 27.555088,305.739502 
	C26.667137,303.050873 26.037916,300.956573 25.408693,298.862305 
z"/>
<path fill="#101619" opacity="1.000000" stroke="none" 
	d="
M303.764648,311.996918 
	C303.851501,308.295349 303.938324,304.593781 304.029968,299.996124 
	C303.950195,283.399200 303.865631,267.698364 303.781067,251.997513 
	C303.887787,251.014008 304.088043,250.030487 304.087799,249.047012 
	C304.076752,206.000412 304.047913,162.953812 304.023499,119.003189 
	C303.936707,110.064888 303.847687,102.030617 303.758667,93.996338 
	C303.849670,92.598038 303.940704,91.199745 304.463440,89.247383 
	C312.931458,88.732948 320.967804,88.772583 329.004120,88.812210 
	C329.430389,88.978188 329.856628,89.144157 330.814392,89.425224 
	C331.900238,89.556526 332.454620,89.572731 333.008972,89.588928 
	C333.440186,89.766647 333.871399,89.944366 334.905945,90.302582 
	C338.674133,91.600525 341.838989,92.717979 345.003815,93.835442 
	C346.294464,94.666504 347.585083,95.497559 349.236420,96.300354 
	C349.597107,96.272087 349.549683,96.315536 349.549683,96.315536 
	C360.310883,104.539787 368.202179,114.679375 370.995728,128.963440 
	C371.347656,130.443207 371.593872,131.251175 371.840088,132.059143 
	C371.899292,133.439560 371.958527,134.819992 372.059326,137.058624 
	C372.131622,183.987259 372.203400,230.057739 372.152527,276.128082 
	C372.144135,283.754944 371.599701,291.381195 371.302979,299.007751 
	C371.166656,299.442047 371.030334,299.876343 370.743347,300.851013 
	C370.525269,301.930634 370.457886,302.469849 370.390533,303.009094 
	C368.569092,307.318573 366.747650,311.628021 364.607910,316.466614 
	C362.875977,319.002686 361.462372,321.009613 360.048767,323.016541 
	C358.445923,324.479004 356.843079,325.941467 354.787720,327.776611 
	C350.122314,330.809479 345.909424,333.469635 341.696533,336.129791 
	C329.811707,341.591248 317.227081,339.650146 304.062378,340.082153 
	C304.062378,333.390869 304.062378,327.146698 304.062897,320.025146 
	C303.963837,316.764160 303.864258,314.380554 303.764648,311.996918 
z"/>
<path fill="#FBFAF3" opacity="1.000000" stroke="none" 
	d="
M93.517090,88.924332 
	C85.749092,88.857712 78.328827,88.758987 70.447739,88.567139 
	C71.326439,87.750771 72.665939,87.027504 74.167496,86.216743 
	C74.077362,80.177956 75.784981,78.907097 82.020294,80.887276 
	C84.637604,81.718475 87.207405,82.699287 90.231033,83.764336 
	C90.471291,82.834091 91.073174,81.770927 90.939026,80.810585 
	C90.242142,75.821686 93.036087,73.635864 97.329918,73.189270 
	C101.516640,72.753822 104.045303,74.948662 104.986107,79.187775 
	C105.224838,80.263443 106.571297,81.710480 107.594978,81.883186 
	C111.183853,82.488693 111.438126,84.378731 110.374489,87.244629 
	C109.781532,88.842270 109.391769,90.515312 109.738945,92.485413 
	C111.036079,90.847115 112.333206,89.208809 113.828125,87.817413 
	C113.559494,89.565613 112.686432,91.066483 112.684891,92.568253 
	C112.601494,173.910980 112.590683,255.253784 112.583191,336.596588 
	C112.583122,337.421875 112.725845,338.247162 112.930313,339.525940 
	C112.370735,338.211273 111.089966,336.445465 111.082924,334.674652 
	C110.961029,304.018494 110.995804,273.361786 110.996323,242.705185 
	C110.996353,240.737549 110.996330,238.769928 110.996330,236.952606 
	C103.157913,234.809265 102.005058,235.658920 102.000542,243.091797 
	C101.996498,249.756271 102.109818,256.423828 101.923698,263.083130 
	C101.875847,264.795044 100.894516,266.480835 100.342026,268.178650 
	C99.537468,268.041382 98.732910,267.904083 97.928352,267.766815 
	C97.799309,264.138000 97.555740,260.508698 97.572006,256.880554 
	C97.589859,252.900223 97.940002,248.921936 97.980011,244.941101 
	C98.052017,237.777512 98.164696,230.607330 97.931366,223.450638 
	C97.815460,219.895844 99.090538,218.906479 102.526375,218.925110 
	C110.995544,218.971100 110.996468,218.816238 110.996628,210.500168 
	C110.997330,174.345367 110.997978,138.190582 110.998642,102.035782 
	C110.998680,100.275978 110.998642,98.516182 110.998642,97.526398 
	C108.190353,98.619026 105.397148,100.813965 103.351997,100.257866 
	C99.722366,99.270912 98.110016,96.055267 99.441406,91.870758 
	C99.816208,90.692795 98.980118,89.129570 98.699417,87.743050 
	C97.087883,88.126106 95.476341,88.509163 93.517090,88.924332 
z"/>
<path fill="#FBFAF3" opacity="1.000000" stroke="none" 
	d="
M128.702835,69.997398 
	C128.757477,74.710419 128.812119,79.423447 128.731674,84.516869 
	C124.523903,84.878349 120.449547,84.914230 116.380096,84.789612 
	C115.653671,84.767365 114.807632,84.222328 114.254379,83.677467 
	C110.015366,79.502762 112.320862,74.233681 112.228951,69.472855 
	C112.163467,66.080971 115.125282,65.005997 118.272560,64.894325 
	C118.814659,64.875092 119.338905,64.352478 120.765251,63.575424 
	C119.051239,62.629391 118.096588,61.787945 117.012726,61.559479 
	C112.654221,60.640762 111.645203,57.826191 111.956253,53.807491 
	C112.254982,49.947964 114.271858,48.692039 117.875313,47.765606 
	C120.474792,47.097298 122.378601,44.081337 124.920166,42.727020 
	C127.377365,41.417667 130.216797,40.720154 132.969620,40.139091 
	C133.736618,39.977200 135.256073,41.004978 135.564499,41.816177 
	C135.800644,42.437294 134.734360,43.618191 134.142487,44.477901 
	C132.010681,47.574440 129.603790,50.510029 127.762856,53.767536 
	C126.685440,55.674030 125.611893,58.371822 129.886780,59.071861 
	C130.207047,59.662052 130.121002,60.215199 129.461578,60.957909 
	C128.331314,61.562141 127.774422,61.976810 127.217529,62.391479 
	C127.832787,62.928341 128.448059,63.465206 129.063324,64.002068 
	C129.084396,64.765823 129.105469,65.529587 128.622910,66.659958 
	C127.466599,67.536530 126.813896,68.046478 126.161201,68.556427 
	C127.008415,69.036751 127.855621,69.517075 128.702835,69.997398 
z"/>
<path fill="#FBFAF3" opacity="1.000000" stroke="none" 
	d="
M36.638439,105.814651 
	C33.450424,112.797760 29.973166,119.624977 26.274632,126.734451 
	C24.327652,126.823174 22.601946,126.629631 20.485565,126.392273 
	C20.670847,122.637253 18.613792,120.713600 14.690865,119.959000 
	C10.112536,119.078331 10.409195,114.968353 11.260392,111.967522 
	C11.819259,109.997276 14.490623,107.394608 16.345341,107.286041 
	C19.943609,107.075424 21.167358,105.590881 21.989159,102.508751 
	C23.653011,96.268539 30.384205,93.233742 36.396866,95.632515 
	C40.127003,97.120651 39.785511,99.299568 37.515049,101.609886 
	C36.265961,102.880905 33.951584,103.472466 36.638439,105.814651 
z"/>
<path fill="#FBFAF3" opacity="1.000000" stroke="none" 
	d="
M371.661499,299.017639 
	C371.599701,291.381195 372.144135,283.754944 372.152527,276.128082 
	C372.203400,230.057739 372.131622,183.987259 372.187805,137.454956 
	C375.377686,136.760406 376.401520,137.776276 375.563110,141.100677 
	C374.644958,144.741302 374.073090,148.573303 374.064697,152.323486 
	C373.965942,196.554901 374.032745,240.786652 373.954437,285.018127 
	C373.946228,289.646881 374.193024,293.331573 380.341431,293.324707 
	C381.225525,293.323700 382.896973,296.830170 382.795074,298.633820 
	C382.676178,300.738068 381.009552,302.754883 380.014496,304.809631 
	C378.364441,303.781647 376.666168,302.821960 375.080933,301.702209 
	C373.980133,300.924652 373.034821,299.926910 371.661499,299.017639 
z"/>
<path fill="#FBFAF3" opacity="1.000000" stroke="none" 
	d="
M10.549637,170.687546 
	C5.853141,168.344360 6.426721,164.255539 7.482470,160.978561 
	C8.036899,159.257660 11.154812,157.815659 13.335983,157.396210 
	C14.428844,157.186035 16.894522,159.344177 17.230160,160.783218 
	C18.777319,167.416550 20.515333,174.139069 20.840342,180.894287 
	C21.410988,192.755112 21.008068,204.663177 20.989931,216.551422 
	C20.987511,218.138092 20.851088,219.724548 20.253004,221.324738 
	C16.989237,215.782791 18.144762,209.764053 18.199724,203.874695 
	C18.223824,201.292465 19.080551,198.257828 18.031977,196.211014 
	C14.731889,189.769272 15.618994,183.151733 15.992696,176.473740 
	C16.191174,172.926987 14.932188,170.635117 10.549637,170.687546 
z"/>
<path fill="#FBFAF3" opacity="1.000000" stroke="none" 
	d="
M247.031403,38.885132 
	C243.635376,38.820187 240.288223,38.380260 236.585663,37.831505 
	C234.770004,36.815479 233.396011,35.355511 231.832260,35.111477 
	C228.110153,34.530617 224.278107,34.690586 220.529144,34.233936 
	C217.523071,33.867771 215.350922,31.944889 216.155609,28.827053 
	C216.689941,26.756706 218.449722,23.687794 219.986588,23.480558 
	C222.702850,23.114283 226.835434,23.647455 228.307083,25.472143 
	C232.570404,30.758251 234.247238,31.564165 241.296234,30.905409 
	C245.400879,30.521812 249.657104,31.760248 253.845139,32.268864 
	C253.869690,32.885109 253.894241,33.501358 253.918793,34.117607 
	C251.639282,35.581787 249.359787,37.045971 247.031403,38.885132 
z"/>
<path fill="#FBFAF3" opacity="1.000000" stroke="none" 
	d="
M13.999771,240.923401 
	C13.567418,244.803955 13.354639,248.249908 12.566473,251.558792 
	C12.335503,252.528473 10.335793,253.837051 9.390897,253.663208 
	C8.441378,253.488541 7.142728,251.673050 7.120471,250.554260 
	C6.936064,241.284317 6.918231,232.007095 7.122499,222.738098 
	C7.149668,221.505234 8.626155,219.403595 9.572162,219.321289 
	C10.736684,219.219955 12.495479,220.558136 13.177676,221.745255 
	C13.934134,223.061584 13.935359,224.906189 13.967409,226.526657 
	C14.059083,231.161667 13.999731,235.799667 13.999771,240.923401 
z"/>
<path fill="#FBFAF3" opacity="1.000000" stroke="none" 
	d="
M341.820953,336.510925 
	C345.909424,333.469635 350.122314,330.809479 354.671143,328.082977 
	C356.336273,329.660858 358.330475,331.121277 358.846954,332.990112 
	C359.735840,336.206543 358.696899,338.909668 354.553192,339.021271 
	C353.761810,339.042603 352.858765,339.196259 352.211304,339.608948 
	C346.793304,343.062500 345.598145,342.767853 341.820953,336.510925 
z"/>
<path fill="#FBFAF3" opacity="1.000000" stroke="none" 
	d="
M23.838619,143.950668 
	C24.333534,146.036987 24.440601,148.061798 24.397961,150.497772 
	C21.146362,152.013306 18.447605,152.537766 17.874714,147.912338 
	C17.743776,146.855179 16.363865,145.942291 15.534606,144.983932 
	C12.874719,141.909912 12.292317,138.389496 14.338962,134.977661 
	C15.020818,133.840973 17.303574,133.274323 18.871790,133.240097 
	C19.556980,133.225159 20.496733,135.121445 20.950911,136.293198 
	C21.912970,138.775269 22.632050,141.351532 23.838619,143.950668 
z"/>
<path fill="#FBFAF3" opacity="1.000000" stroke="none" 
	d="
M179.898529,26.433270 
	C179.315323,28.708691 178.853470,32.054436 177.987167,32.162659 
	C174.872543,32.551765 171.529617,32.180515 168.481461,31.340239 
	C167.640488,31.108408 166.878250,28.075579 167.259384,26.641411 
	C167.631943,25.239557 169.431290,23.352531 170.743149,23.235603 
	C173.970993,22.947897 177.903152,21.631987 179.898529,26.433270 
z"/>
<path fill="#FBFAF3" opacity="1.000000" stroke="none" 
	d="
M154.004669,346.001617 
	C157.538452,344.242554 159.989487,345.564789 161.519485,348.202789 
	C162.394379,349.711243 162.998749,353.072021 162.405396,353.433655 
	C160.216156,354.767883 157.416473,355.925262 154.964523,355.722168 
	C153.246216,355.579895 150.564423,353.227570 150.415421,351.662109 
	C150.248306,349.906219 152.449112,347.924957 154.004669,346.001617 
z"/>
<path fill="#FBFAF3" opacity="1.000000" stroke="none" 
	d="
M60.111748,90.294235 
	C57.334728,92.028191 54.504688,93.349724 51.333221,94.696503 
	C50.672607,92.996140 50.720634,91.083298 49.956467,89.584587 
	C48.445423,86.621071 48.434780,84.045303 51.491993,82.469902 
	C54.563015,80.887383 56.892845,82.733475 58.458809,85.270676 
	C59.292896,86.622078 59.544315,88.333099 60.111748,90.294235 
z"/>
<path fill="#FBFAF3" opacity="1.000000" stroke="none" 
	d="
M303.403351,252.111115 
	C303.865631,267.698364 303.950195,283.399200 303.899078,299.551605 
	C303.176575,298.988800 302.086548,297.978271 302.078766,296.959473 
	C301.969879,282.749451 301.994507,268.538239 302.054993,254.327606 
	C302.057983,253.625290 302.687714,252.925613 303.403351,252.111115 
z"/>
<path fill="#FBFAF3" opacity="1.000000" stroke="none" 
	d="
M148.051163,39.808060 
	C147.583557,40.507946 147.105804,40.820068 146.331696,41.114990 
	C144.804382,39.716076 143.454285,38.419815 142.381714,36.924488 
	C141.583282,35.811325 141.144165,34.440426 140.545013,33.184315 
	C144.164429,32.117859 147.752426,30.901592 151.433563,30.129324 
	C152.062469,29.997383 153.819290,31.818657 153.757309,32.639614 
	C153.669998,33.796043 152.458130,34.937798 151.568176,35.945461 
	C150.478271,37.179520 149.224152,38.268559 148.051163,39.808060 
z"/>
<path fill="#FBFAF3" opacity="1.000000" stroke="none" 
	d="
M329.006989,88.428993 
	C320.967804,88.772583 312.931458,88.732948 304.440247,88.824905 
	C304.619812,88.322296 305.162018,87.325462 305.909363,87.135414 
	C307.158539,86.817757 308.538971,87.023491 309.863831,86.994980 
	C316.416992,86.853996 323.667969,88.929260 327.455048,79.983192 
	C327.973297,80.419456 328.491577,80.855721 329.009857,81.291977 
	C329.009857,83.543243 329.009857,85.794502 329.006989,88.428993 
z"/>
<path fill="#FBFAF3" opacity="1.000000" stroke="none" 
	d="
M44.093338,330.024414 
	C45.656303,330.537231 47.175751,331.452576 48.857075,332.656311 
	C48.428185,334.121063 47.905853,335.338287 47.233585,336.466095 
	C45.364662,339.601532 42.368996,340.048737 40.021820,337.391174 
	C38.552956,335.728058 37.432468,333.757233 36.227798,332.028046 
	C38.621887,329.066559 42.579288,337.030518 44.093338,330.024414 
z"/>
<path fill="#FBFAF3" opacity="1.000000" stroke="none" 
	d="
M303.400696,94.085335 
	C303.847687,102.030617 303.936707,110.064888 303.892090,118.551201 
	C302.966095,116.552597 301.584320,114.122185 301.499420,111.647263 
	C301.298676,105.797424 299.017914,99.670052 303.400696,94.085335 
z"/>
<path fill="#FBFAF3" opacity="1.000000" stroke="none" 
	d="
M7.023681,198.749420 
	C7.006011,198.011429 6.876946,197.603882 7.022847,197.362595 
	C8.273259,195.294739 9.521372,193.217819 10.968253,191.292465 
	C11.071943,191.154480 13.578188,192.263626 13.543019,192.669479 
	C13.297994,195.496918 13.458872,198.850800 11.962440,200.944290 
	C10.375702,203.164108 7.805729,202.308609 7.023681,198.749420 
z"/>
<path fill="#FBFAF3" opacity="1.000000" stroke="none" 
	d="
M7.012145,283.567749 
	C7.002542,282.664246 6.838332,282.091827 7.029029,281.686310 
	C7.915365,279.801666 8.899995,277.963257 9.849453,276.108276 
	C11.147275,277.621460 13.520076,279.153961 13.493331,280.643341 
	C13.452246,282.931274 11.761992,285.189606 10.771531,287.460480 
	C9.521360,286.298889 8.271193,285.137299 7.012145,283.567749 
z"/>
<path fill="#FBFAF3" opacity="1.000000" stroke="none" 
	d="
M98.076317,287.063293 
	C99.506699,287.448975 101.686462,288.050293 101.785629,288.895660 
	C102.185677,292.306000 102.070709,295.799957 101.845802,299.243408 
	C101.792419,300.060669 100.576057,300.801971 99.894638,301.578217 
	C99.294029,300.896362 98.214333,300.242798 98.172089,299.527924 
	C97.933479,295.490479 97.943810,291.438293 98.076317,287.063293 
z"/>
<path fill="#FBFAF3" opacity="1.000000" stroke="none" 
	d="
M182.246521,340.657257 
	C188.506668,340.119904 194.686203,340.042511 201.299591,340.085876 
	C202.245651,342.565948 201.716370,344.054413 198.888290,344.009399 
	C194.280167,343.936005 189.658951,344.157837 185.069305,343.857330 
	C184.046097,343.790344 183.130859,342.074127 182.246521,340.657257 
z"/>
<path fill="#FBFAF3" opacity="1.000000" stroke="none" 
	d="
M268.994843,340.606018 
	C270.073608,340.114594 271.151062,340.028168 272.616272,340.073914 
	C273.139374,343.065399 273.274780,345.924744 273.410156,348.784088 
	C273.958344,349.192108 274.506531,349.600128 275.054718,350.008148 
	C273.174164,350.535645 271.025452,351.901215 269.472595,351.404419 
	C266.793060,350.547180 266.602264,348.369904 268.314758,345.818115 
	C269.126465,344.608612 268.802826,342.637207 268.994843,340.606018 
z"/>
<path fill="#FBFAF3" opacity="1.000000" stroke="none" 
	d="
M49.827171,94.910385 
	C48.345764,96.389854 46.542168,97.712715 44.406563,99.114098 
	C43.520470,97.902359 43.305580,95.939697 42.345047,95.455154 
	C40.002892,94.273651 38.974491,92.597603 41.006374,91.067139 
	C42.149570,90.206070 44.851082,90.857475 46.582478,91.523964 
	C47.791870,91.989494 48.546970,93.635201 49.827171,94.910385 
z"/>
<path fill="#FBFAF3" opacity="1.000000" stroke="none" 
	d="
M322.593994,349.128448 
	C318.689484,349.315582 315.123871,349.315582 310.357849,349.315582 
	C314.568787,345.537140 320.386414,345.038361 323.085571,347.321686 
	C323.322113,347.521820 322.997101,348.385712 322.593994,349.128448 
z"/>
<path fill="#FBFAF3" opacity="1.000000" stroke="none" 
	d="
M210.017517,37.316135 
	C209.555389,37.749691 209.103271,37.823231 208.321579,37.784531 
	C207.137436,35.460999 206.282867,33.249702 205.010574,29.957520 
	C207.371780,30.295317 209.235794,30.561985 211.099823,30.828653 
	C210.742401,32.871140 210.384964,34.913628 210.017517,37.316135 
z"/>
<path fill="#FBFAF3" opacity="1.000000" stroke="none" 
	d="
M269.212402,65.903427 
	C268.268005,63.614353 267.653748,61.188057 267.034241,58.376118 
	C269.874603,57.627563 272.293884,58.618641 272.498169,61.530201 
	C272.591949,62.866497 270.592682,64.349655 269.212402,65.903427 
z"/>
<path fill="#FBFAF3" opacity="1.000000" stroke="none" 
	d="
M345.005066,93.430222 
	C341.838989,92.717979 338.674133,91.600525 335.256042,90.237213 
	C337.873810,89.632126 340.744843,89.272888 344.535828,88.798546 
	C344.639801,89.732628 344.823059,91.378815 345.005066,93.430222 
z"/>
<path fill="#FBFAF3" opacity="1.000000" stroke="none" 
	d="
M360.495117,323.014832 
	C361.462372,321.009613 362.875977,319.002686 364.578583,316.811676 
	C366.172516,318.548065 367.477478,320.468536 369.206543,323.013153 
	C366.597015,323.013153 363.769226,323.013153 360.495117,323.014832 
z"/>
<path fill="#FBFAF3" opacity="1.000000" stroke="none" 
	d="
M25.064209,299.002502 
	C26.037916,300.956573 26.667137,303.050873 27.283836,305.522522 
	C25.723318,305.321198 24.175322,304.742462 22.627323,304.163727 
	C23.324791,302.490051 24.022257,300.816345 25.064209,299.002502 
z"/>
<path fill="#FBFAF3" opacity="1.000000" stroke="none" 
	d="
M350.007019,96.212677 
	C349.549683,96.315536 349.597107,96.272087 349.567627,96.294975 
	C349.701385,95.195160 349.639618,93.970535 350.089417,92.977654 
	C350.564911,91.928024 351.374878,90.779938 352.345306,90.315552 
	C352.794983,90.100372 354.763458,91.593399 354.670197,91.984581 
	C354.392212,93.150482 353.555786,94.269348 352.695801,95.177696 
	C352.189056,95.712883 351.223541,95.813675 350.007019,96.212677 
z"/>
<path fill="#FBFAF3" opacity="1.000000" stroke="none" 
	d="
M30.936155,314.912964 
	C31.837009,315.425262 32.305981,315.969360 32.776871,316.789490 
	C31.356089,318.226013 29.933378,319.386475 28.504822,320.551697 
	C25.840046,317.298706 26.258778,315.987793 30.936155,314.912964 
z"/>
<path fill="#FBFAF3" opacity="1.000000" stroke="none" 
	d="
M303.406097,312.099792 
	C303.864258,314.380554 303.963837,316.764160 303.924042,319.575134 
	C300.535583,317.686371 301.744904,314.948944 303.406097,312.099792 
z"/>
<path fill="#FBFAF3" opacity="1.000000" stroke="none" 
	d="
M122.412949,345.141174 
	C123.409447,345.712067 124.060699,346.353821 124.711945,346.995575 
	C124.196945,347.266296 123.681953,347.537018 123.166962,347.807770 
	C122.800552,346.942535 122.434128,346.077271 122.412949,345.141174 
z"/>
<path fill="#FBFAF3" opacity="1.000000" stroke="none" 
	d="
M372.110107,131.884430 
	C371.593872,131.251175 371.347656,130.443207 371.162445,129.315521 
	C371.609009,129.900436 371.994598,130.805084 372.110107,131.884430 
z"/>
<path fill="#FBFAF3" opacity="1.000000" stroke="none" 
	d="
M370.653748,302.956604 
	C370.457886,302.469849 370.525269,301.930634 370.788055,301.193054 
	C370.961304,301.631195 370.939148,302.267639 370.653748,302.956604 
z"/>
<path fill="#FBFAF3" opacity="1.000000" stroke="none" 
	d="
M285.295593,88.805176 
	C284.770508,88.865822 284.483124,88.710442 284.096161,88.293732 
	C284.442719,87.872070 284.916290,87.660988 285.389862,87.449905 
	C285.428528,87.846573 285.467224,88.243233 285.295593,88.805176 
z"/>
<path fill="#FBFAF3" opacity="1.000000" stroke="none" 
	d="
M332.950500,89.321579 
	C332.454620,89.572731 331.900238,89.556526 331.150757,89.333389 
	C331.601074,89.102379 332.246582,89.078300 332.950500,89.321579 
z"/>
<path fill="#F9F9F2" opacity="1.000000" stroke="none" 
	d="
M239.160049,64.093826 
	C243.879272,66.224831 245.537476,69.713898 245.391266,74.317657 
	C245.264587,78.306595 245.287567,82.300140 245.217712,86.291191 
	C245.209396,86.765747 245.033051,87.237366 244.873810,88.002319 
	C214.219315,88.002319 183.580612,88.002319 152.438477,88.002319 
	C152.438477,82.208206 152.062012,76.727600 152.545761,71.323990 
	C153.017120,66.058899 156.620804,63.621494 162.934677,63.605656 
	C184.558090,63.551411 206.181717,63.558319 227.805191,63.588154 
	C231.455032,63.593189 235.104553,63.826988 239.160049,64.093826 
z"/>
<path fill="#F6F6F0" opacity="1.000000" stroke="none" 
	d="
M228.196854,207.279327 
	C203.762222,207.312637 179.802979,207.343887 155.843735,207.381912 
	C149.092560,207.392624 144.828369,204.095062 144.654785,198.703766 
	C144.475494,193.134949 148.940033,189.271683 155.700729,189.268524 
	C183.819977,189.255417 211.939240,189.261398 240.058472,189.286865 
	C247.091049,189.293228 251.356049,192.846283 251.258270,198.490005 
	C251.166809,203.769409 246.706863,207.346054 240.152267,207.353836 
	C236.325623,207.358383 232.498917,207.306396 228.196854,207.279327 
z"/>
<path fill="#FEFEF6" opacity="1.000000" stroke="none" 
	d="
M128.837646,69.637833 
	C127.855621,69.517075 127.008415,69.036751 126.161201,68.556427 
	C126.813896,68.046478 127.466599,67.536530 128.468262,67.014709 
	C128.868958,67.761314 128.920700,68.519783 128.837646,69.637833 
z"/>
<path fill="#FEFEF6" opacity="1.000000" stroke="none" 
	d="
M129.226730,63.674259 
	C128.448059,63.465206 127.832787,62.928341 127.217529,62.391479 
	C127.774422,61.976810 128.331314,61.562141 129.264771,61.166260 
	C129.557587,61.905514 129.473862,62.625980 129.226730,63.674259 
z"/>
</svg>
