<svg version="1.1" id="Layer_1" xmlns="http://www.w3.org/2000/svg" xmlns:xlink="http://www.w3.org/1999/xlink" x="0px" y="0px"
	 width="100%" viewBox="0 0 335 382" enable-background="new 0 0 335 382" xml:space="preserve">
<path fill="#FEFEFC" opacity="1.000000" stroke="none" 
	d="
M180.000000,383.000000 
	C120.000008,383.000000 60.500023,383.000000 1.000024,383.000000 
	C1.000016,255.666702 1.000016,128.333405 1.000008,1.000075 
	C112.666618,1.000050 224.333237,1.000050 335.999878,1.000025 
	C335.999939,128.333267 335.999939,255.666519 335.999969,382.999878 
	C284.166656,383.000000 232.333328,383.000000 180.000000,383.000000 
M182.406723,39.598709 
	C179.569733,42.166702 176.681824,44.681244 173.912323,47.320065 
	C171.802429,49.330418 170.134979,50.074512 167.078537,48.244968 
	C162.260101,45.360729 156.988022,43.084602 151.667892,41.245621 
	C148.583084,40.179317 147.397003,38.521374 147.145340,35.614178 
	C146.786209,31.465097 146.302811,27.324873 146.033676,23.170422 
	C145.746658,18.740046 143.370712,16.342375 139.083099,16.245960 
	C131.922302,16.084940 124.743790,16.005465 117.593201,16.335377 
	C112.408623,16.574579 110.344284,19.126024 109.939468,24.352180 
	C109.630836,28.336580 109.447968,32.348568 108.795486,36.279625 
	C108.537811,37.832073 107.505775,39.901733 106.231712,40.529957 
	C100.131660,43.537788 93.886520,46.282188 87.552971,48.762848 
	C86.064964,49.345657 83.595306,49.154625 82.338043,48.255630 
	C79.107170,45.945427 76.384773,42.939655 73.308907,40.393383 
	C68.973679,36.804581 65.155731,36.720978 61.318295,40.573208 
	C55.913506,45.998825 50.682812,51.618980 45.679955,57.416786 
	C42.071308,61.598843 42.432171,64.717606 46.311169,68.871956 
	C49.379890,72.158516 52.665798,75.254272 55.561993,78.682518 
	C56.406586,79.682266 56.792908,81.682556 56.442482,82.965637 
	C55.304905,87.130829 53.508228,91.117599 52.399300,95.288452 
	C51.676941,98.005363 50.452961,99.043816 47.619606,99.165550 
	C42.299458,99.394135 36.993011,100.019951 31.691772,100.583244 
	C28.047878,100.970428 25.834797,103.010170 25.784756,106.766960 
	C25.687111,114.097481 25.641367,121.432823 25.805527,128.760986 
	C25.891026,132.577637 27.979578,134.959900 31.975859,135.277390 
	C37.125172,135.686478 42.305618,135.857956 47.411568,136.569901 
	C49.069534,136.801071 51.258591,138.039383 51.976509,139.444534 
	C58.496868,152.206696 58.257729,153.464371 48.869957,163.916809 
	C47.868229,165.032135 46.837868,166.122833 45.864590,167.262375 
	C42.260654,171.481979 42.105297,174.167603 45.870586,178.204865 
	C51.094795,183.806427 56.526985,189.218369 61.977543,194.602768 
	C64.985176,197.573898 68.382591,197.991333 71.842728,195.252960 
	C73.406677,194.015244 75.131393,192.863892 76.352837,191.330551 
	C81.373047,185.028488 86.821754,183.244583 94.229683,187.853516 
	C98.505447,190.513718 105.409111,190.537918 107.902863,194.043945 
	C110.589577,197.821259 109.491196,204.281830 110.071747,209.568741 
	C110.633331,214.682892 112.715057,216.743134 117.775848,216.820160 
	C124.773804,216.926651 131.774734,216.820786 138.774094,216.858643 
	C143.522400,216.884308 145.757736,214.425888 146.048721,209.841766 
	C146.323181,205.518219 146.772217,201.203583 146.953461,196.877029 
	C147.074066,193.997894 148.250000,192.524216 151.094177,191.542831 
	C157.495956,189.333954 163.730682,186.640976 170.409424,183.996109 
	C173.727814,187.129486 177.197525,190.470886 180.739243,193.734146 
	C185.566025,198.181427 188.990128,198.257477 193.746506,193.723648 
	C198.326660,189.357819 202.693237,184.767273 207.135788,180.257874 
	C213.908966,173.382782 214.242126,171.341751 206.970490,164.872070 
	C200.020981,158.689026 196.404190,152.453918 201.961395,143.624878 
	C202.563110,142.668915 202.813293,141.450623 203.055573,140.317444 
	C203.685318,137.372116 205.524643,136.343292 208.432312,136.244614 
	C213.258041,136.080811 218.079285,135.680817 222.891647,135.257782 
	C227.438721,134.858047 229.771790,132.327576 229.754501,127.696472 
	C229.730865,121.363579 229.778305,115.030235 229.723190,108.697708 
	C229.670120,102.597565 227.936447,100.722260 221.788162,100.180916 
	C217.141495,99.771797 212.446136,99.750618 207.847031,99.060043 
	C206.336243,98.833206 204.554260,97.336235 203.755936,95.931519 
	C197.809097,85.467552 197.897964,76.042786 209.080551,68.879768 
	C209.215744,68.793182 209.307571,68.637589 209.416412,68.511414 
	C213.145157,64.189110 213.310989,61.296700 209.449539,57.144947 
	C204.231476,51.534622 198.773773,46.146126 193.384369,40.696602 
	C190.344193,37.622509 186.928574,36.694630 182.406723,39.598709 
M217.594101,355.586426 
	C217.625229,356.585602 217.634216,357.586029 217.691010,358.583740 
	C218.108414,365.917999 219.518707,367.247711 226.732788,367.223541 
	C232.398407,367.204559 238.064423,367.260498 243.729767,367.217194 
	C249.043518,367.176575 251.606094,364.754395 251.966217,359.396057 
	C252.189575,356.072815 252.029053,352.708771 252.477234,349.422546 
	C252.671509,347.997986 253.648193,346.039520 254.814163,345.499390 
	C259.771973,343.202698 264.923615,339.890167 270.024872,339.854431 
	C273.287201,339.831543 276.585022,344.888123 279.867554,347.666718 
	C279.994629,347.774292 280.127533,347.875092 280.259338,347.976898 
	C284.196808,351.019226 288.027771,350.922394 291.340515,347.303589 
	C295.724396,342.514709 299.878754,337.515930 304.137634,332.612488 
	C306.897369,329.435059 306.913879,326.362396 303.839508,323.370483 
	C301.214813,320.816162 298.494354,318.345367 296.056122,315.622742 
	C295.245636,314.717743 294.580383,312.988586 294.865784,311.903748 
	C297.669556,301.245850 298.664368,300.535156 309.736115,300.243652 
	C310.235718,300.230499 310.738281,300.270813 311.235413,300.232971 
	C316.703949,299.816864 318.956543,297.489380 319.049377,291.968658 
	C319.130615,287.137390 319.085052,282.303955 319.085938,277.471466 
	C319.087494,268.961212 317.151031,267.139221 308.435791,267.019806 
	C297.800751,266.874115 300.706360,268.628967 296.201935,259.154846 
	C294.285004,255.123001 294.846069,252.453674 298.112701,249.675995 
	C300.377960,247.749802 302.224213,245.327026 304.232483,243.103378 
	C306.880676,240.171173 306.962189,237.145294 304.375427,234.151077 
	C300.021118,229.110901 295.727814,224.011108 291.198669,219.131439 
	C288.249573,215.954102 284.715302,216.027420 281.319214,218.560532 
	C278.651062,220.550674 276.063934,222.659149 273.541595,224.832047 
	C271.386688,226.688416 269.541534,226.349426 266.819427,225.516113 
	C256.079895,222.228470 250.170929,216.226273 251.544769,204.177719 
	C251.984497,200.321274 248.925797,197.931335 244.637573,198.014038 
	C240.306595,198.097534 235.972992,198.034348 231.640793,198.066376 
	C218.273376,198.165222 217.999832,198.311523 217.867432,211.859253 
	C217.815125,217.212494 216.136536,219.759872 210.725433,222.355865 
	C201.908325,226.585861 195.598923,226.143814 189.090363,218.854660 
	C186.363739,215.801010 182.040787,215.338165 178.894485,218.936539 
	C174.208984,224.295303 169.780182,229.886047 165.402252,235.502869 
	C163.391586,238.082535 163.833496,240.746185 165.989059,243.214859 
	C168.491302,246.080566 170.981979,248.967041 173.279938,251.994598 
	C174.070236,253.035828 174.884155,254.666031 174.633850,255.793213 
	C172.801529,264.044342 169.812820,266.512360 161.422302,267.217255 
	C160.758347,267.273071 160.091934,267.319489 159.433350,267.416016 
	C154.499481,268.139404 152.106461,270.764099 151.998947,275.725342 
	C151.915909,279.556366 151.932007,283.390381 151.956879,287.222748 
	C152.018555,296.726868 149.650345,300.711700 164.068649,300.244049 
	C171.285553,300.009979 171.800247,305.435669 174.132370,309.846527 
	C176.438416,314.208160 173.088837,315.690613 170.912598,318.028015 
	C169.006760,320.074951 166.788574,322.135101 165.783661,324.623627 
	C164.932373,326.731720 164.657669,330.118500 165.803268,331.793549 
	C169.427750,337.093140 173.634583,342.043335 178.004150,346.770020 
	C182.008057,351.101166 186.280548,351.588470 190.118088,347.159241 
	C196.336761,339.981750 202.187576,339.567291 210.496353,343.879181 
	C215.662994,346.560425 218.671234,348.749878 217.594101,355.586426 
M113.485901,343.784149 
	C116.414833,341.455200 119.644844,339.416229 122.217987,336.744598 
	C131.011475,327.614441 130.923386,327.529602 123.475304,317.571838 
	C123.375549,317.438477 123.270287,317.309204 123.172646,317.174347 
	C120.418213,313.369934 123.887497,305.523682 128.555435,304.999542 
	C140.304901,303.680267 140.305054,303.680267 140.414444,292.011292 
	C140.420685,291.345184 140.422180,290.679047 140.424850,290.012909 
	C140.459793,281.278595 139.232422,280.150055 130.278290,279.867706 
	C128.500519,279.811646 125.996536,279.357330 125.119110,278.148834 
	C120.853027,272.272980 121.159828,268.825623 125.691864,262.862854 
	C126.296272,262.067657 126.869492,261.244232 127.525360,260.493469 
	C129.608551,258.108795 129.677200,255.773148 127.526726,253.377136 
	C125.084488,250.656036 122.772820,247.813675 120.259674,245.161133 
	C114.252914,238.821213 112.130852,238.640305 105.850166,244.550995 
	C103.528625,246.735764 101.524620,247.184021 98.796089,245.733643 
	C97.190117,244.879974 95.460106,244.200897 93.714966,243.681641 
	C91.137360,242.914673 90.145821,241.468185 89.994911,238.657242 
	C89.265564,225.071045 89.169838,225.076172 75.429329,225.140518 
	C75.262794,225.141296 75.096268,225.141434 74.929733,225.142197 
	C64.120293,225.191574 62.721794,225.936905 62.900955,236.527161 
	C63.017193,243.398178 57.909431,243.200119 54.261978,245.466461 
	C50.648186,247.711853 48.371567,246.261032 45.650497,243.730072 
	C40.624088,239.054779 38.162476,239.333023 33.414028,244.226410 
	C32.602501,245.062714 31.778887,245.890869 31.017771,246.771942 
	C22.285269,256.880890 20.722544,256.653046 29.569086,266.280151 
	C32.583965,269.561035 28.651129,279.158203 24.350557,279.802887 
	C12.433638,281.589264 12.433602,281.589264 12.415167,293.429474 
	C12.413870,294.262146 12.411911,295.094788 12.413192,295.927460 
	C12.424396,303.210083 13.742073,304.586670 21.052061,304.930023 
	C22.049824,304.976898 23.221851,304.649780 24.013288,305.066040 
	C25.716852,305.962036 27.972755,306.896423 28.650061,308.417419 
	C29.876003,311.170441 32.989838,314.027344 29.816973,317.481232 
	C20.081860,328.078644 22.678957,328.262634 31.231800,337.681915 
	C31.567360,338.051483 31.929451,338.397003 32.279991,338.752930 
	C38.964329,345.540283 40.001297,345.516907 47.415150,339.143219 
	C48.679329,338.056366 50.548435,336.796570 51.998512,336.948547 
	C59.912434,337.777954 62.565552,340.836945 62.995422,348.819275 
	C63.040161,349.650055 63.010509,350.494812 63.154148,351.308594 
	C63.815716,355.056671 65.683708,357.272217 69.890182,357.074951 
	C74.044357,356.880127 78.222252,356.877167 82.376198,357.074799 
	C87.049438,357.297211 89.061462,354.817169 89.554245,350.614258 
	C89.805916,348.467804 89.419037,346.157318 90.081055,344.174835 
	C90.664452,342.427856 92.059143,340.713196 93.546768,339.572876 
	C95.080009,338.397583 97.221954,338.054352 98.982750,337.128662 
	C101.407593,335.853821 103.129990,336.331818 105.142075,338.240051 
	C107.384354,340.366638 110.196030,341.892853 113.485901,343.784149 
z"/>
<path fill="#030F0C" opacity="1.000000" stroke="none" 
	d="
M182.722824,39.381470 
	C186.928574,36.694630 190.344193,37.622509 193.384369,40.696602 
	C198.773773,46.146126 204.231476,51.534622 209.449539,57.144947 
	C213.310989,61.296700 213.145157,64.189110 209.416412,68.511414 
	C209.307571,68.637589 209.215744,68.793182 209.080551,68.879768 
	C197.897964,76.042786 197.809097,85.467552 203.755936,95.931519 
	C204.554260,97.336235 206.336243,98.833206 207.847031,99.060043 
	C212.446136,99.750618 217.141495,99.771797 221.788162,100.180916 
	C227.936447,100.722260 229.670120,102.597565 229.723190,108.697708 
	C229.778305,115.030235 229.730865,121.363579 229.754501,127.696472 
	C229.771790,132.327576 227.438721,134.858047 222.891647,135.257782 
	C218.079285,135.680817 213.258041,136.080811 208.432312,136.244614 
	C205.524643,136.343292 203.685318,137.372116 203.055573,140.317444 
	C202.813293,141.450623 202.563110,142.668915 201.961395,143.624878 
	C196.404190,152.453918 200.020981,158.689026 206.970490,164.872070 
	C214.242126,171.341751 213.908966,173.382782 207.135788,180.257874 
	C202.693237,184.767273 198.326660,189.357819 193.746506,193.723648 
	C188.990128,198.257477 185.566025,198.181427 180.739243,193.734146 
	C177.197525,190.470886 173.727814,187.129486 170.409424,183.996109 
	C163.730682,186.640976 157.495956,189.333954 151.094177,191.542831 
	C148.250000,192.524216 147.074066,193.997894 146.953461,196.877029 
	C146.772217,201.203583 146.323181,205.518219 146.048721,209.841766 
	C145.757736,214.425888 143.522400,216.884308 138.774094,216.858643 
	C131.774734,216.820786 124.773804,216.926651 117.775848,216.820160 
	C112.715057,216.743134 110.633331,214.682892 110.071747,209.568741 
	C109.491196,204.281830 110.589577,197.821259 107.902863,194.043945 
	C105.409111,190.537918 98.505447,190.513718 94.229683,187.853516 
	C86.821754,183.244583 81.373047,185.028488 76.352837,191.330551 
	C75.131393,192.863892 73.406677,194.015244 71.842728,195.252960 
	C68.382591,197.991333 64.985176,197.573898 61.977543,194.602768 
	C56.526985,189.218369 51.094795,183.806427 45.870586,178.204865 
	C42.105297,174.167603 42.260654,171.481979 45.864590,167.262375 
	C46.837868,166.122833 47.868229,165.032135 48.869957,163.916809 
	C58.257729,153.464371 58.496868,152.206696 51.976509,139.444534 
	C51.258591,138.039383 49.069534,136.801071 47.411568,136.569901 
	C42.305618,135.857956 37.125172,135.686478 31.975859,135.277390 
	C27.979578,134.959900 25.891026,132.577637 25.805527,128.760986 
	C25.641367,121.432823 25.687111,114.097481 25.784756,106.766960 
	C25.834797,103.010170 28.047878,100.970428 31.691772,100.583244 
	C36.993011,100.019951 42.299458,99.394135 47.619606,99.165550 
	C50.452961,99.043816 51.676941,98.005363 52.399300,95.288452 
	C53.508228,91.117599 55.304905,87.130829 56.442482,82.965637 
	C56.792908,81.682556 56.406586,79.682266 55.561993,78.682518 
	C52.665798,75.254272 49.379890,72.158516 46.311169,68.871956 
	C42.432171,64.717606 42.071308,61.598843 45.679955,57.416786 
	C50.682812,51.618980 55.913506,45.998825 61.318295,40.573208 
	C65.155731,36.720978 68.973679,36.804581 73.308907,40.393383 
	C76.384773,42.939655 79.107170,45.945427 82.338043,48.255630 
	C83.595306,49.154625 86.064964,49.345657 87.552971,48.762848 
	C93.886520,46.282188 100.131660,43.537788 106.231712,40.529957 
	C107.505775,39.901733 108.537811,37.832073 108.795486,36.279625 
	C109.447968,32.348568 109.630836,28.336580 109.939468,24.352180 
	C110.344284,19.126024 112.408623,16.574579 117.593201,16.335377 
	C124.743790,16.005465 131.922302,16.084940 139.083099,16.245960 
	C143.370712,16.342375 145.746658,18.740046 146.033676,23.170422 
	C146.302811,27.324873 146.786209,31.465097 147.145340,35.614178 
	C147.397003,38.521374 148.583084,40.179317 151.667892,41.245621 
	C156.988022,43.084602 162.260101,45.360729 167.078537,48.244968 
	C170.134979,50.074512 171.802429,49.330418 173.912323,47.320065 
	C176.681824,44.681244 179.569733,42.166702 182.722824,39.381470 
M104.987144,87.424675 
	C90.609055,100.695183 86.928940,117.999184 95.102242,133.903778 
	C102.900528,149.078613 118.886024,156.432266 136.307205,152.858841 
	C158.154556,148.377533 171.885071,123.352654 163.415237,103.452400 
	C153.470062,80.085747 126.449562,72.386452 104.987144,87.424675 
z"/>
<path fill="#030E0C" opacity="1.000000" stroke="none" 
	d="
M217.593353,355.126465 
	C218.671234,348.749878 215.662994,346.560425 210.496353,343.879181 
	C202.187576,339.567291 196.336761,339.981750 190.118088,347.159241 
	C186.280548,351.588470 182.008057,351.101166 178.004150,346.770020 
	C173.634583,342.043335 169.427750,337.093140 165.803268,331.793549 
	C164.657669,330.118500 164.932373,326.731720 165.783661,324.623627 
	C166.788574,322.135101 169.006760,320.074951 170.912598,318.028015 
	C173.088837,315.690613 176.438416,314.208160 174.132370,309.846527 
	C171.800247,305.435669 171.285553,300.009979 164.068649,300.244049 
	C149.650345,300.711700 152.018555,296.726868 151.956879,287.222748 
	C151.932007,283.390381 151.915909,279.556366 151.998947,275.725342 
	C152.106461,270.764099 154.499481,268.139404 159.433350,267.416016 
	C160.091934,267.319489 160.758347,267.273071 161.422302,267.217255 
	C169.812820,266.512360 172.801529,264.044342 174.633850,255.793213 
	C174.884155,254.666031 174.070236,253.035828 173.279938,251.994598 
	C170.981979,248.967041 168.491302,246.080566 165.989059,243.214859 
	C163.833496,240.746185 163.391586,238.082535 165.402252,235.502869 
	C169.780182,229.886047 174.208984,224.295303 178.894485,218.936539 
	C182.040787,215.338165 186.363739,215.801010 189.090363,218.854660 
	C195.598923,226.143814 201.908325,226.585861 210.725433,222.355865 
	C216.136536,219.759872 217.815125,217.212494 217.867432,211.859253 
	C217.999832,198.311523 218.273376,198.165222 231.640793,198.066376 
	C235.972992,198.034348 240.306595,198.097534 244.637573,198.014038 
	C248.925797,197.931335 251.984497,200.321274 251.544769,204.177719 
	C250.170929,216.226273 256.079895,222.228470 266.819427,225.516113 
	C269.541534,226.349426 271.386688,226.688416 273.541595,224.832047 
	C276.063934,222.659149 278.651062,220.550674 281.319214,218.560532 
	C284.715302,216.027420 288.249573,215.954102 291.198669,219.131439 
	C295.727814,224.011108 300.021118,229.110901 304.375427,234.151077 
	C306.962189,237.145294 306.880676,240.171173 304.232483,243.103378 
	C302.224213,245.327026 300.377960,247.749802 298.112701,249.675995 
	C294.846069,252.453674 294.285004,255.123001 296.201935,259.154846 
	C300.706360,268.628967 297.800751,266.874115 308.435791,267.019806 
	C317.151031,267.139221 319.087494,268.961212 319.085938,277.471466 
	C319.085052,282.303955 319.130615,287.137390 319.049377,291.968658 
	C318.956543,297.489380 316.703949,299.816864 311.235413,300.232971 
	C310.738281,300.270813 310.235718,300.230499 309.736115,300.243652 
	C298.664368,300.535156 297.669556,301.245850 294.865784,311.903748 
	C294.580383,312.988586 295.245636,314.717743 296.056122,315.622742 
	C298.494354,318.345367 301.214813,320.816162 303.839508,323.370483 
	C306.913879,326.362396 306.897369,329.435059 304.137634,332.612488 
	C299.878754,337.515930 295.724396,342.514709 291.340515,347.303589 
	C288.027771,350.922394 284.196808,351.019226 280.259338,347.976898 
	C280.127533,347.875092 279.994629,347.774292 279.867554,347.666718 
	C276.585022,344.888123 273.287201,339.831543 270.024872,339.854431 
	C264.923615,339.890167 259.771973,343.202698 254.814163,345.499390 
	C253.648193,346.039520 252.671509,347.997986 252.477234,349.422546 
	C252.029053,352.708771 252.189575,356.072815 251.966217,359.396057 
	C251.606094,364.754395 249.043518,367.176575 243.729767,367.217194 
	C238.064423,367.260498 232.398407,367.204559 226.732788,367.223541 
	C219.518707,367.247711 218.108414,365.917999 217.691010,358.583740 
	C217.634216,357.586029 217.625229,356.585602 217.593353,355.126465 
M265.304626,286.740662 
	C267.051056,269.437561 255.477707,254.805725 238.358932,252.673981 
	C222.033081,250.640976 206.849854,262.359070 204.504318,278.802277 
	C202.193863,294.999481 213.483688,310.142273 229.774048,312.695984 
	C246.997833,315.396057 262.072845,304.702850 265.304626,286.740662 
z"/>
<path fill="#04100D" opacity="1.000000" stroke="none" 
	d="
M113.122879,343.732269 
	C110.196030,341.892853 107.384354,340.366638 105.142075,338.240051 
	C103.129990,336.331818 101.407593,335.853821 98.982750,337.128662 
	C97.221954,338.054352 95.080009,338.397583 93.546768,339.572876 
	C92.059143,340.713196 90.664452,342.427856 90.081055,344.174835 
	C89.419037,346.157318 89.805916,348.467804 89.554245,350.614258 
	C89.061462,354.817169 87.049438,357.297211 82.376198,357.074799 
	C78.222252,356.877167 74.044357,356.880127 69.890182,357.074951 
	C65.683708,357.272217 63.815716,355.056671 63.154148,351.308594 
	C63.010509,350.494812 63.040161,349.650055 62.995422,348.819275 
	C62.565552,340.836945 59.912434,337.777954 51.998512,336.948547 
	C50.548435,336.796570 48.679329,338.056366 47.415150,339.143219 
	C40.001297,345.516907 38.964329,345.540283 32.279991,338.752930 
	C31.929451,338.397003 31.567360,338.051483 31.231800,337.681915 
	C22.678957,328.262634 20.081860,328.078644 29.816973,317.481232 
	C32.989838,314.027344 29.876003,311.170441 28.650061,308.417419 
	C27.972755,306.896423 25.716852,305.962036 24.013288,305.066040 
	C23.221851,304.649780 22.049824,304.976898 21.052061,304.930023 
	C13.742073,304.586670 12.424396,303.210083 12.413192,295.927460 
	C12.411911,295.094788 12.413870,294.262146 12.415167,293.429474 
	C12.433602,281.589264 12.433638,281.589264 24.350557,279.802887 
	C28.651129,279.158203 32.583965,269.561035 29.569086,266.280151 
	C20.722544,256.653046 22.285269,256.880890 31.017771,246.771942 
	C31.778887,245.890869 32.602501,245.062714 33.414028,244.226410 
	C38.162476,239.333023 40.624088,239.054779 45.650497,243.730072 
	C48.371567,246.261032 50.648186,247.711853 54.261978,245.466461 
	C57.909431,243.200119 63.017193,243.398178 62.900955,236.527161 
	C62.721794,225.936905 64.120293,225.191574 74.929733,225.142197 
	C75.096268,225.141434 75.262794,225.141296 75.429329,225.140518 
	C89.169838,225.076172 89.265564,225.071045 89.994911,238.657242 
	C90.145821,241.468185 91.137360,242.914673 93.714966,243.681641 
	C95.460106,244.200897 97.190117,244.879974 98.796089,245.733643 
	C101.524620,247.184021 103.528625,246.735764 105.850166,244.550995 
	C112.130852,238.640305 114.252914,238.821213 120.259674,245.161133 
	C122.772820,247.813675 125.084488,250.656036 127.526726,253.377136 
	C129.677200,255.773148 129.608551,258.108795 127.525360,260.493469 
	C126.869492,261.244232 126.296272,262.067657 125.691864,262.862854 
	C121.159828,268.825623 120.853027,272.272980 125.119110,278.148834 
	C125.996536,279.357330 128.500519,279.811646 130.278290,279.867706 
	C139.232422,280.150055 140.459793,281.278595 140.424850,290.012909 
	C140.422180,290.679047 140.420685,291.345184 140.414444,292.011292 
	C140.305054,303.680267 140.304901,303.680267 128.555435,304.999542 
	C123.887497,305.523682 120.418213,313.369934 123.172646,317.174347 
	C123.270287,317.309204 123.375549,317.438477 123.475304,317.571838 
	C130.923386,327.529602 131.011475,327.614441 122.217987,336.744598 
	C119.644844,339.416229 116.414833,341.455200 113.122879,343.732269 
M60.625175,308.919678 
	C69.452957,315.737122 80.431381,316.462067 88.919952,310.788147 
	C97.718132,304.907227 101.569374,294.888641 98.954651,284.683990 
	C96.681038,275.810608 87.333130,268.285645 77.764847,267.626465 
	C68.513870,266.989166 60.040600,272.062653 55.630402,280.879761 
	C50.876038,290.384949 52.346107,299.446594 60.625175,308.919678 
z"/>
<path fill="#FCFDFB" opacity="1.000000" stroke="none" 
	d="
M105.260590,87.192123 
	C126.449562,72.386452 153.470062,80.085747 163.415237,103.452400 
	C171.885071,123.352654 158.154556,148.377533 136.307205,152.858841 
	C118.886024,156.432266 102.900528,149.078613 95.102242,133.903778 
	C86.928940,117.999184 90.609055,100.695183 105.260590,87.192123 
z"/>
<path fill="#FBFCFA" opacity="1.000000" stroke="none" 
	d="
M265.248352,287.156799 
	C262.072845,304.702850 246.997833,315.396057 229.774048,312.695984 
	C213.483688,310.142273 202.193863,294.999481 204.504318,278.802277 
	C206.849854,262.359070 222.033081,250.640976 238.358932,252.673981 
	C255.477707,254.805725 267.051056,269.437561 265.248352,287.156799 
z"/>
<path fill="#FAFBF9" opacity="1.000000" stroke="none" 
	d="
M60.362038,308.671692 
	C52.346107,299.446594 50.876038,290.384949 55.630402,280.879761 
	C60.040600,272.062653 68.513870,266.989166 77.764847,267.626465 
	C87.333130,268.285645 96.681038,275.810608 98.954651,284.683990 
	C101.569374,294.888641 97.718132,304.907227 88.919952,310.788147 
	C80.431381,316.462067 69.452957,315.737122 60.362038,308.671692 
z"/>
</svg>
