<svg version="1.1" id="Layer_1" xmlns="http://www.w3.org/2000/svg" xmlns:xlink="http://www.w3.org/1999/xlink" x="0px" y="0px"
	 width="100%" viewBox="0 0 445 480" enable-background="new 0 0 445 480" xml:space="preserve">
<path fill="#CBCBC9" opacity="1.000000" stroke="none" 
	d="
M258.000000,481.000000 
	C172.023102,481.000000 86.546204,481.000000 1.034652,481.000000 
	C1.034652,321.066345 1.034652,161.132660 1.034652,1.099497 
	C149.226868,1.099497 297.453827,1.099497 445.840393,1.099497 
	C445.840393,160.999878 445.840393,320.999908 445.840393,481.000000 
	C383.466034,481.000000 320.983032,481.000000 258.000000,481.000000 
M132.462234,49.949562 
	C128.882568,51.725998 125.139305,53.242001 121.772301,55.356998 
	C118.801399,57.223186 116.625107,56.772892 114.235413,54.558323 
	C110.451729,51.051903 106.665405,47.526970 102.646065,44.301651 
	C97.685577,40.321114 93.272858,40.331081 88.805634,44.802383 
	C81.864769,51.749573 75.137276,58.932121 68.665771,66.318428 
	C64.217995,71.394943 64.581367,75.383751 69.246033,80.447319 
	C73.082474,84.611839 77.294960,88.449150 80.898392,92.798035 
	C82.060387,94.200417 82.547043,96.957062 82.077408,98.765648 
	C80.742126,103.907944 78.503586,108.812920 77.114204,113.944954 
	C76.231201,117.206581 74.735939,118.581253 71.316536,118.773125 
	C64.501442,119.155518 57.702129,119.899391 50.913898,120.652557 
	C46.271908,121.167603 43.677952,123.877350 43.639278,128.619843 
	C43.565933,137.614868 43.474880,146.613754 43.660286,155.605469 
	C43.776688,161.250687 46.208202,163.761307 51.858433,164.341949 
	C58.319118,165.005890 64.849602,165.103729 71.264229,166.036041 
	C73.270935,166.327698 75.823517,168.127258 76.696152,169.929153 
	C78.932709,174.547424 80.199318,179.624130 82.180244,184.381577 
	C83.473503,187.487488 82.736275,189.739105 80.550774,192.003525 
	C76.849815,195.838120 73.214722,199.741135 69.670036,203.720596 
	C64.006317,210.078964 63.922672,213.079010 69.643867,219.140640 
	C76.720703,226.638580 83.865112,234.087418 91.297264,241.227570 
	C93.999939,243.824081 97.398132,243.967087 100.572632,240.959991 
	C105.148605,236.625305 110.058685,232.644943 114.679939,228.355789 
	C117.092072,226.117035 119.216553,225.974472 122.280258,227.329544 
	C129.422043,230.488342 136.720398,233.347015 144.117172,235.848755 
	C147.062805,236.845016 147.961563,238.271805 148.140732,241.147751 
	C148.513336,247.128036 149.188339,253.091690 149.829605,259.052429 
	C150.511703,265.392914 153.187164,267.831085 159.608292,267.881805 
	C168.271973,267.950226 176.936890,267.948547 185.600677,267.888763 
	C191.734970,267.846436 194.467056,265.351410 194.998154,259.289185 
	C195.507004,253.481079 196.016510,247.663986 196.207550,241.840393 
	C196.328476,238.154709 197.758896,236.264999 201.361832,235.036865 
	C208.442947,232.623169 215.438950,229.861938 222.211197,226.691315 
	C224.686020,225.532669 226.047974,225.685410 227.832153,227.384735 
	C232.534058,231.863037 237.484970,236.092102 242.015305,240.734116 
	C245.096085,243.890854 248.535858,244.043365 251.251007,241.491470 
	C259.601227,233.643311 267.668152,225.478455 275.570801,217.175568 
	C279.716400,212.819977 279.697693,210.389114 275.882355,205.815994 
	C271.940430,201.091217 267.642548,196.656830 263.390717,192.200058 
	C261.329376,190.039368 260.726807,187.991699 261.943207,185.036469 
	C263.904022,180.272781 265.470032,175.335251 266.989655,170.405457 
	C267.945496,167.304596 269.577118,165.788101 273.017303,165.673080 
	C279.337158,165.461777 285.658508,164.945999 291.947510,164.264130 
	C297.961487,163.612076 300.373444,160.760162 300.416321,154.652771 
	C300.473602,146.488876 300.449371,138.323853 300.389557,130.159836 
	C300.339386,123.310043 298.199432,120.891891 291.275879,120.219208 
	C284.976715,119.607193 278.621338,119.500160 272.354218,118.683334 
	C270.719208,118.470238 268.598328,116.744514 267.945801,115.190620 
	C265.759796,109.984718 264.333099,104.463295 262.221588,99.221436 
	C261.045074,96.300674 261.463562,94.250015 263.616364,92.091209 
	C267.614166,88.082268 271.545013,83.996460 275.321472,79.779419 
	C279.811737,74.765282 279.856781,71.202232 275.202240,66.231071 
	C268.599426,59.179131 261.849762,52.255878 254.957840,45.486324 
	C249.536972,40.161713 245.593430,40.066643 239.619888,44.955341 
	C235.759293,48.114811 232.369492,51.865929 228.405472,54.873081 
	C227.146606,55.828064 224.447495,55.894901 222.869751,55.245323 
	C215.811096,52.339203 209.040924,48.707882 201.915283,45.999626 
	C198.441315,44.679279 196.745941,42.962112 196.486023,39.359756 
	C196.090561,33.879017 195.478455,28.413979 194.964615,22.941685 
	C194.519760,18.204031 192.217102,14.804127 187.272232,14.677917 
	C177.620544,14.431575 167.945679,14.405463 158.301758,14.804305 
	C152.653610,15.037896 150.248306,18.017506 149.632721,23.866776 
	C149.249176,27.511341 148.630447,31.170305 148.688354,34.813728 
	C148.796585,41.624481 146.611969,46.219009 139.147507,47.198322 
	C137.080292,47.469536 135.152039,48.799915 132.462234,49.949562 
M299.555206,457.165619 
	C305.555023,457.169647 311.554871,457.185486 317.554657,457.174713 
	C325.072418,457.161194 328.384003,453.965027 328.738129,446.339905 
	C328.908173,442.678070 329.063263,439.012543 329.085571,435.347809 
	C329.105225,432.116425 330.389771,430.209351 333.612427,429.093018 
	C338.638245,427.352051 343.410217,424.871033 348.449829,423.180969 
	C350.104980,422.625885 352.741882,422.909271 354.088837,423.924744 
	C357.794708,426.718719 360.926239,430.260437 364.524170,433.215118 
	C369.065002,436.944122 373.965637,436.666016 377.844879,432.379730 
	C383.543671,426.083099 389.025970,419.589142 394.545685,413.132385 
	C397.628723,409.525909 397.603973,405.933502 394.211700,402.470398 
	C392.929840,401.161774 391.747589,399.755066 390.456665,398.455933 
	C381.410797,389.352631 381.405457,389.357910 386.466034,377.501953 
	C386.531464,377.348724 386.557373,377.135925 386.674103,377.053680 
	C388.408142,375.831848 390.019928,373.944702 391.927368,373.568909 
	C395.317230,372.901093 398.888580,373.164429 402.382996,373.015259 
	C409.840698,372.696991 412.917969,369.566010 412.976868,362.139130 
	C413.029724,355.473267 413.017548,348.806732 413.007904,342.140564 
	C412.996674,334.386444 409.876007,330.339417 402.190887,331.347076 
	C391.241425,332.782776 385.211365,328.769562 383.215454,318.290253 
	C382.849823,316.370392 383.047607,313.700867 384.146210,312.266510 
	C387.272766,308.184326 391.030060,304.589325 394.479950,300.749390 
	C397.618164,297.256317 397.799042,293.637115 394.664398,290.013000 
	C389.326080,283.841156 384.081757,277.583252 378.592529,271.548309 
	C374.325623,266.857117 370.055939,266.669159 364.949493,270.564880 
	C361.638611,273.090759 358.327026,275.624176 355.144135,278.306488 
	C352.816467,280.268066 350.735474,280.505493 347.912079,279.039124 
	C343.352966,276.671265 338.368774,275.107697 333.868286,272.647919 
	C332.052063,271.655273 330.221832,269.361053 329.820679,267.372162 
	C328.870911,262.663544 328.862183,257.772858 328.308655,252.974716 
	C327.578400,246.644547 325.256195,244.407990 318.961548,244.335052 
	C310.964539,244.242371 302.960815,244.310776 294.966492,244.538620 
	C288.515381,244.722473 286.198425,247.230927 285.818512,253.854492 
	C285.560974,258.344299 285.300232,262.834930 285.131653,267.328583 
	C285.009552,270.584503 283.579956,272.264404 280.289734,273.254272 
	C275.536774,274.684235 270.879578,276.625214 266.454468,278.883118 
	C263.594910,280.342163 261.514954,280.066925 259.214569,278.153839 
	C255.885513,275.385223 252.569351,272.582214 249.060699,270.053284 
	C244.512909,266.775421 240.136047,266.643707 236.857742,270.322266 
	C230.679245,277.255127 224.860138,284.517639 219.090088,291.800323 
	C216.869568,294.602997 217.175430,297.693542 219.582291,300.479492 
	C222.835098,304.244629 225.869186,308.220306 229.347229,311.761780 
	C231.710236,314.167816 231.423065,316.031342 230.520737,319.137421 
	C227.866501,328.273987 222.602600,332.817902 212.907303,331.560272 
	C212.424973,331.497711 211.913162,331.637756 211.417801,331.703796 
	C205.881912,332.442200 202.727005,335.772400 202.632828,341.300781 
	C202.507950,348.631561 202.504028,355.965576 202.543427,363.297668 
	C202.582779,370.616364 204.677200,372.480652 212.140732,372.923828 
	C227.684723,373.846832 224.576553,370.637817 230.940842,386.659515 
	C231.521912,388.122375 230.769836,390.751404 229.705795,392.109375 
	C226.753189,395.877594 223.233871,399.195221 220.081619,402.815552 
	C217.348129,405.954956 216.880264,409.412872 219.670319,412.788025 
	C224.950531,419.175354 230.121414,425.671936 235.724823,431.767273 
	C240.243851,436.683014 245.188751,436.745239 250.287857,432.541840 
	C253.628571,429.787933 256.620392,426.575653 260.134430,424.084961 
	C261.491913,423.122803 264.098175,422.931610 265.723907,423.522217 
	C270.870117,425.391876 275.714722,428.109436 280.887573,429.881500 
	C284.184113,431.010803 285.326752,432.693542 285.265472,436.021393 
	C285.179749,440.676941 285.236694,445.368073 285.727448,449.991425 
	C286.168945,454.151123 288.249908,457.246674 293.081329,457.231659 
	C294.914337,457.225952 296.747284,457.188965 299.555206,457.165619 
M162.268448,303.224121 
	C154.032471,295.488068 152.574539,295.468475 144.059479,302.979492 
	C143.809540,303.199951 143.589005,303.563629 143.306732,303.619995 
	C141.222885,304.036255 138.847488,305.224304 137.079620,304.631439 
	C124.996857,300.579224 125.037621,300.457397 124.011780,287.678070 
	C123.971771,287.179718 123.955750,286.678864 123.898209,286.182648 
	C123.300217,281.025726 120.621780,278.467377 115.379410,278.291138 
	C111.884186,278.173584 108.381073,278.284332 104.881546,278.302216 
	C92.052116,278.367706 90.299759,279.690277 90.115768,292.436584 
	C90.035522,297.996521 88.097496,300.350647 83.062408,302.555237 
	C76.796181,305.298920 72.203934,306.206909 66.952332,300.507690 
	C62.665092,295.855042 59.126801,296.509644 54.497284,301.176758 
	C51.099854,304.601746 47.865986,308.209656 44.785675,311.923889 
	C39.566174,318.217468 39.125267,319.754547 44.805576,325.477966 
	C50.135593,330.848389 51.122707,335.857544 47.217644,342.089935 
	C47.045547,342.364594 46.961754,342.709290 46.895725,343.033386 
	C46.305332,345.931305 44.509544,346.900818 41.596909,347.188538 
	C26.801924,348.649963 26.809757,348.729279 26.797441,363.694061 
	C26.785576,378.113159 27.006649,378.308197 41.436512,379.009216 
	C42.980274,379.084198 44.986481,379.366058 45.933601,380.358215 
	C50.718918,385.370941 50.664082,392.023438 46.204041,397.410980 
	C44.826176,399.075409 43.520340,400.816071 42.344692,402.627686 
	C40.297890,405.781708 40.297443,408.811584 43.034313,411.703064 
	C46.467285,415.330017 49.674690,419.175018 53.180614,422.727356 
	C59.754265,429.388000 62.615475,429.638733 69.391541,422.879669 
	C73.309875,418.971222 76.511765,418.900452 81.664230,420.494415 
	C88.539612,422.621277 91.069229,426.245972 90.277718,432.990479 
	C90.125168,434.290405 90.325920,435.661560 90.543304,436.969971 
	C91.427704,442.293213 93.532143,444.139465 98.885307,444.201508 
	C104.383965,444.265228 109.884079,444.248199 115.383217,444.212982 
	C120.698700,444.178986 123.337212,441.819763 123.877510,436.556427 
	C124.217384,433.245544 124.215111,429.889801 124.731293,426.611633 
	C124.932373,425.334564 125.851082,423.731018 126.926384,423.099762 
	C136.689026,417.368561 138.873932,417.572784 147.619614,424.476837 
	C148.011978,424.786560 148.411545,425.087463 148.797699,425.404724 
	C152.511139,428.455902 156.031464,428.351135 159.374802,424.797577 
	C162.114670,421.885498 164.909363,419.024689 167.630096,416.095032 
	C176.101791,406.972870 176.366669,406.731720 168.427628,397.379272 
	C164.511658,392.766113 163.806808,388.983612 166.875565,383.688812 
	C168.789719,380.386139 170.617950,378.539795 174.525131,378.825439 
	C176.653778,378.981079 178.836624,378.553406 180.982239,378.286133 
	C185.709427,377.697205 188.042297,375.090454 187.914490,370.212616 
	C187.801056,365.883453 187.963715,361.547729 187.948746,357.215118 
	C187.925110,350.371399 185.556656,347.034668 178.892136,347.576599 
	C170.817993,348.233154 167.287155,345.018311 165.291748,337.642273 
	C164.341385,334.129303 164.267746,331.775940 166.730728,329.155670 
	C168.661240,327.101868 170.225937,324.704529 171.955795,322.461853 
	C174.068100,319.723389 174.191986,316.968536 171.909225,314.286377 
	C168.891373,310.740509 165.815796,307.243774 162.268448,303.224121 
z"/>
<path fill="#030C0A" opacity="1.000000" stroke="none" 
	d="
M132.811127,49.796951 
	C135.152039,48.799915 137.080292,47.469536 139.147507,47.198322 
	C146.611969,46.219009 148.796585,41.624481 148.688354,34.813728 
	C148.630447,31.170305 149.249176,27.511341 149.632721,23.866776 
	C150.248306,18.017506 152.653610,15.037896 158.301758,14.804305 
	C167.945679,14.405463 177.620544,14.431575 187.272232,14.677917 
	C192.217102,14.804127 194.519760,18.204031 194.964615,22.941685 
	C195.478455,28.413979 196.090561,33.879017 196.486023,39.359756 
	C196.745941,42.962112 198.441315,44.679279 201.915283,45.999626 
	C209.040924,48.707882 215.811096,52.339203 222.869751,55.245323 
	C224.447495,55.894901 227.146606,55.828064 228.405472,54.873081 
	C232.369492,51.865929 235.759293,48.114811 239.619888,44.955341 
	C245.593430,40.066643 249.536972,40.161713 254.957840,45.486324 
	C261.849762,52.255878 268.599426,59.179131 275.202240,66.231071 
	C279.856781,71.202232 279.811737,74.765282 275.321472,79.779419 
	C271.545013,83.996460 267.614166,88.082268 263.616364,92.091209 
	C261.463562,94.250015 261.045074,96.300674 262.221588,99.221436 
	C264.333099,104.463295 265.759796,109.984718 267.945801,115.190620 
	C268.598328,116.744514 270.719208,118.470238 272.354218,118.683334 
	C278.621338,119.500160 284.976715,119.607193 291.275879,120.219208 
	C298.199432,120.891891 300.339386,123.310043 300.389557,130.159836 
	C300.449371,138.323853 300.473602,146.488876 300.416321,154.652771 
	C300.373444,160.760162 297.961487,163.612076 291.947510,164.264130 
	C285.658508,164.945999 279.337158,165.461777 273.017303,165.673080 
	C269.577118,165.788101 267.945496,167.304596 266.989655,170.405457 
	C265.470032,175.335251 263.904022,180.272781 261.943207,185.036469 
	C260.726807,187.991699 261.329376,190.039368 263.390717,192.200058 
	C267.642548,196.656830 271.940430,201.091217 275.882355,205.815994 
	C279.697693,210.389114 279.716400,212.819977 275.570801,217.175568 
	C267.668152,225.478455 259.601227,233.643311 251.251007,241.491470 
	C248.535858,244.043365 245.096085,243.890854 242.015305,240.734116 
	C237.484970,236.092102 232.534058,231.863037 227.832153,227.384735 
	C226.047974,225.685410 224.686020,225.532669 222.211197,226.691315 
	C215.438950,229.861938 208.442947,232.623169 201.361832,235.036865 
	C197.758896,236.264999 196.328476,238.154709 196.207550,241.840393 
	C196.016510,247.663986 195.507004,253.481079 194.998154,259.289185 
	C194.467056,265.351410 191.734970,267.846436 185.600677,267.888763 
	C176.936890,267.948547 168.271973,267.950226 159.608292,267.881805 
	C153.187164,267.831085 150.511703,265.392914 149.829605,259.052429 
	C149.188339,253.091690 148.513336,247.128036 148.140732,241.147751 
	C147.961563,238.271805 147.062805,236.845016 144.117172,235.848755 
	C136.720398,233.347015 129.422043,230.488342 122.280258,227.329544 
	C119.216553,225.974472 117.092072,226.117035 114.679939,228.355789 
	C110.058685,232.644943 105.148605,236.625305 100.572632,240.959991 
	C97.398132,243.967087 93.999939,243.824081 91.297264,241.227570 
	C83.865112,234.087418 76.720703,226.638580 69.643867,219.140640 
	C63.922672,213.079010 64.006317,210.078964 69.670036,203.720596 
	C73.214722,199.741135 76.849815,195.838120 80.550774,192.003525 
	C82.736275,189.739105 83.473503,187.487488 82.180244,184.381577 
	C80.199318,179.624130 78.932709,174.547424 76.696152,169.929153 
	C75.823517,168.127258 73.270935,166.327698 71.264229,166.036041 
	C64.849602,165.103729 58.319118,165.005890 51.858433,164.341949 
	C46.208202,163.761307 43.776688,161.250687 43.660286,155.605469 
	C43.474880,146.613754 43.565933,137.614868 43.639278,128.619843 
	C43.677952,123.877350 46.271908,121.167603 50.913898,120.652557 
	C57.702129,119.899391 64.501442,119.155518 71.316536,118.773125 
	C74.735939,118.581253 76.231201,117.206581 77.114204,113.944954 
	C78.503586,108.812920 80.742126,103.907944 82.077408,98.765648 
	C82.547043,96.957062 82.060387,94.200417 80.898392,92.798035 
	C77.294960,88.449150 73.082474,84.611839 69.246033,80.447319 
	C64.581367,75.383751 64.217995,71.394943 68.665771,66.318428 
	C75.137276,58.932121 81.864769,51.749573 88.805634,44.802383 
	C93.272858,40.331081 97.685577,40.321114 102.646065,44.301651 
	C106.665405,47.526970 110.451729,51.051903 114.235413,54.558323 
	C116.625107,56.772892 118.801399,57.223186 121.772301,55.356998 
	C125.139305,53.242001 128.882568,51.725998 132.811127,49.796951 
M218.202713,151.544800 
	C221.361649,138.753342 219.656265,126.838051 212.217331,115.755737 
	C198.696564,95.612892 173.691483,88.417549 151.882965,98.567017 
	C132.135284,107.757385 121.153938,132.421997 127.304443,153.771454 
	C133.145096,174.045364 151.305771,187.807480 172.178101,187.776642 
	C194.142975,187.744171 211.854187,174.061371 218.202713,151.544800 
z"/>
<path fill="#030C0A" opacity="1.000000" stroke="none" 
	d="
M299.067749,457.165924 
	C296.747284,457.188965 294.914337,457.225952 293.081329,457.231659 
	C288.249908,457.246674 286.168945,454.151123 285.727448,449.991425 
	C285.236694,445.368073 285.179749,440.676941 285.265472,436.021393 
	C285.326752,432.693542 284.184113,431.010803 280.887573,429.881500 
	C275.714722,428.109436 270.870117,425.391876 265.723907,423.522217 
	C264.098175,422.931610 261.491913,423.122803 260.134430,424.084961 
	C256.620392,426.575653 253.628571,429.787933 250.287857,432.541840 
	C245.188751,436.745239 240.243851,436.683014 235.724823,431.767273 
	C230.121414,425.671936 224.950531,419.175354 219.670319,412.788025 
	C216.880264,409.412872 217.348129,405.954956 220.081619,402.815552 
	C223.233871,399.195221 226.753189,395.877594 229.705795,392.109375 
	C230.769836,390.751404 231.521912,388.122375 230.940842,386.659515 
	C224.576553,370.637817 227.684723,373.846832 212.140732,372.923828 
	C204.677200,372.480652 202.582779,370.616364 202.543427,363.297668 
	C202.504028,355.965576 202.507950,348.631561 202.632828,341.300781 
	C202.727005,335.772400 205.881912,332.442200 211.417801,331.703796 
	C211.913162,331.637756 212.424973,331.497711 212.907303,331.560272 
	C222.602600,332.817902 227.866501,328.273987 230.520737,319.137421 
	C231.423065,316.031342 231.710236,314.167816 229.347229,311.761780 
	C225.869186,308.220306 222.835098,304.244629 219.582291,300.479492 
	C217.175430,297.693542 216.869568,294.602997 219.090088,291.800323 
	C224.860138,284.517639 230.679245,277.255127 236.857742,270.322266 
	C240.136047,266.643707 244.512909,266.775421 249.060699,270.053284 
	C252.569351,272.582214 255.885513,275.385223 259.214569,278.153839 
	C261.514954,280.066925 263.594910,280.342163 266.454468,278.883118 
	C270.879578,276.625214 275.536774,274.684235 280.289734,273.254272 
	C283.579956,272.264404 285.009552,270.584503 285.131653,267.328583 
	C285.300232,262.834930 285.560974,258.344299 285.818512,253.854492 
	C286.198425,247.230927 288.515381,244.722473 294.966492,244.538620 
	C302.960815,244.310776 310.964539,244.242371 318.961548,244.335052 
	C325.256195,244.407990 327.578400,246.644547 328.308655,252.974716 
	C328.862183,257.772858 328.870911,262.663544 329.820679,267.372162 
	C330.221832,269.361053 332.052063,271.655273 333.868286,272.647919 
	C338.368774,275.107697 343.352966,276.671265 347.912079,279.039124 
	C350.735474,280.505493 352.816467,280.268066 355.144135,278.306488 
	C358.327026,275.624176 361.638611,273.090759 364.949493,270.564880 
	C370.055939,266.669159 374.325623,266.857117 378.592529,271.548309 
	C384.081757,277.583252 389.326080,283.841156 394.664398,290.013000 
	C397.799042,293.637115 397.618164,297.256317 394.479950,300.749390 
	C391.030060,304.589325 387.272766,308.184326 384.146210,312.266510 
	C383.047607,313.700867 382.849823,316.370392 383.215454,318.290253 
	C385.211365,328.769562 391.241425,332.782776 402.190887,331.347076 
	C409.876007,330.339417 412.996674,334.386444 413.007904,342.140564 
	C413.017548,348.806732 413.029724,355.473267 412.976868,362.139130 
	C412.917969,369.566010 409.840698,372.696991 402.382996,373.015259 
	C398.888580,373.164429 395.317230,372.901093 391.927368,373.568909 
	C390.019928,373.944702 388.408142,375.831848 386.674103,377.053680 
	C386.557373,377.135925 386.531464,377.348724 386.466034,377.501953 
	C381.405457,389.357910 381.410797,389.352631 390.456665,398.455933 
	C391.747589,399.755066 392.929840,401.161774 394.211700,402.470398 
	C397.603973,405.933502 397.628723,409.525909 394.545685,413.132385 
	C389.025970,419.589142 383.543671,426.083099 377.844879,432.379730 
	C373.965637,436.666016 369.065002,436.944122 364.524170,433.215118 
	C360.926239,430.260437 357.794708,426.718719 354.088837,423.924744 
	C352.741882,422.909271 350.104980,422.625885 348.449829,423.180969 
	C343.410217,424.871033 338.638245,427.352051 333.612427,429.093018 
	C330.389771,430.209351 329.105225,432.116425 329.085571,435.347809 
	C329.063263,439.012543 328.908173,442.678070 328.738129,446.339905 
	C328.384003,453.965027 325.072418,457.161194 317.554657,457.174713 
	C311.554871,457.185486 305.555023,457.169647 299.067749,457.165924 
M302.969635,388.781860 
	C325.088470,390.772858 343.337921,376.057495 345.533600,354.460693 
	C347.592010,334.214050 332.141724,315.485931 311.337341,313.009613 
	C291.078217,310.598236 271.620575,325.425415 268.874542,345.367371 
	C265.885101,367.076630 280.038605,385.513916 302.969635,388.781860 
z"/>
<path fill="#040C0B" opacity="1.000000" stroke="none" 
	d="
M162.516739,303.475037 
	C165.815796,307.243774 168.891373,310.740509 171.909225,314.286377 
	C174.191986,316.968536 174.068100,319.723389 171.955795,322.461853 
	C170.225937,324.704529 168.661240,327.101868 166.730728,329.155670 
	C164.267746,331.775940 164.341385,334.129303 165.291748,337.642273 
	C167.287155,345.018311 170.817993,348.233154 178.892136,347.576599 
	C185.556656,347.034668 187.925110,350.371399 187.948746,357.215118 
	C187.963715,361.547729 187.801056,365.883453 187.914490,370.212616 
	C188.042297,375.090454 185.709427,377.697205 180.982239,378.286133 
	C178.836624,378.553406 176.653778,378.981079 174.525131,378.825439 
	C170.617950,378.539795 168.789719,380.386139 166.875565,383.688812 
	C163.806808,388.983612 164.511658,392.766113 168.427628,397.379272 
	C176.366669,406.731720 176.101791,406.972870 167.630096,416.095032 
	C164.909363,419.024689 162.114670,421.885498 159.374802,424.797577 
	C156.031464,428.351135 152.511139,428.455902 148.797699,425.404724 
	C148.411545,425.087463 148.011978,424.786560 147.619614,424.476837 
	C138.873932,417.572784 136.689026,417.368561 126.926384,423.099762 
	C125.851082,423.731018 124.932373,425.334564 124.731293,426.611633 
	C124.215111,429.889801 124.217384,433.245544 123.877510,436.556427 
	C123.337212,441.819763 120.698700,444.178986 115.383217,444.212982 
	C109.884079,444.248199 104.383965,444.265228 98.885307,444.201508 
	C93.532143,444.139465 91.427704,442.293213 90.543304,436.969971 
	C90.325920,435.661560 90.125168,434.290405 90.277718,432.990479 
	C91.069229,426.245972 88.539612,422.621277 81.664230,420.494415 
	C76.511765,418.900452 73.309875,418.971222 69.391541,422.879669 
	C62.615475,429.638733 59.754265,429.388000 53.180614,422.727356 
	C49.674690,419.175018 46.467285,415.330017 43.034313,411.703064 
	C40.297443,408.811584 40.297890,405.781708 42.344692,402.627686 
	C43.520340,400.816071 44.826176,399.075409 46.204041,397.410980 
	C50.664082,392.023438 50.718918,385.370941 45.933601,380.358215 
	C44.986481,379.366058 42.980274,379.084198 41.436512,379.009216 
	C27.006649,378.308197 26.785576,378.113159 26.797441,363.694061 
	C26.809757,348.729279 26.801924,348.649963 41.596909,347.188538 
	C44.509544,346.900818 46.305332,345.931305 46.895725,343.033386 
	C46.961754,342.709290 47.045547,342.364594 47.217644,342.089935 
	C51.122707,335.857544 50.135593,330.848389 44.805576,325.477966 
	C39.125267,319.754547 39.566174,318.217468 44.785675,311.923889 
	C47.865986,308.209656 51.099854,304.601746 54.497284,301.176758 
	C59.126801,296.509644 62.665092,295.855042 66.952332,300.507690 
	C72.203934,306.206909 76.796181,305.298920 83.062408,302.555237 
	C88.097496,300.350647 90.035522,297.996521 90.115768,292.436584 
	C90.299759,279.690277 92.052116,278.367706 104.881546,278.302216 
	C108.381073,278.284332 111.884186,278.173584 115.379410,278.291138 
	C120.621780,278.467377 123.300217,281.025726 123.898209,286.182648 
	C123.955750,286.678864 123.971771,287.179718 124.011780,287.678070 
	C125.037621,300.457397 124.996857,300.579224 137.079620,304.631439 
	C138.847488,305.224304 141.222885,304.036255 143.306732,303.619995 
	C143.589005,303.563629 143.809540,303.199951 144.059479,302.979492 
	C152.574539,295.468475 154.032471,295.488068 162.516739,303.475037 
M135.392120,369.639099 
	C135.626373,368.667755 135.913177,367.705688 136.086960,366.723633 
	C138.392609,353.693390 132.958054,342.298431 121.241074,335.559235 
	C110.999931,329.668976 97.951286,330.809357 88.958496,338.380615 
	C79.326149,346.490326 75.470543,360.398376 79.670273,371.885284 
	C83.984772,383.686096 94.019920,390.873627 106.298889,390.957550 
	C119.550262,391.048126 130.369308,383.352875 135.392120,369.639099 
z"/>
<path fill="#CACAC8" opacity="1.000000" stroke="none" 
	d="
M218.116913,151.948822 
	C211.854187,174.061371 194.142975,187.744171 172.178101,187.776642 
	C151.305771,187.807480 133.145096,174.045364 127.304443,153.771454 
	C121.153938,132.421997 132.135284,107.757385 151.882965,98.567017 
	C173.691483,88.417549 198.696564,95.612892 212.217331,115.755737 
	C219.656265,126.838051 221.361649,138.753342 218.116913,151.948822 
z"/>
<path fill="#C9CAC8" opacity="1.000000" stroke="none" 
	d="
M302.530701,388.710083 
	C280.038605,385.513916 265.885101,367.076630 268.874542,345.367371 
	C271.620575,325.425415 291.078217,310.598236 311.337341,313.009613 
	C332.141724,315.485931 347.592010,334.214050 345.533600,354.460693 
	C343.337921,376.057495 325.088470,390.772858 302.530701,388.710083 
z"/>
<path fill="#C9C9C7" opacity="1.000000" stroke="none" 
	d="
M135.286957,370.026611 
	C130.369308,383.352875 119.550262,391.048126 106.298889,390.957550 
	C94.019920,390.873627 83.984772,383.686096 79.670273,371.885284 
	C75.470543,360.398376 79.326149,346.490326 88.958496,338.380615 
	C97.951286,330.809357 110.999931,329.668976 121.241074,335.559235 
	C132.958054,342.298431 138.392609,353.693390 136.086960,366.723633 
	C135.913177,367.705688 135.626373,368.667755 135.286957,370.026611 
z"/>
</svg>
