<svg version="1.1" id="Layer_1" xmlns="http://www.w3.org/2000/svg" xmlns:xlink="http://www.w3.org/1999/xlink" x="0px" y="0px"
	 width="100%" viewBox="0 0 412 410" enable-background="new 0 0 412 410" xml:space="preserve">
<path fill="#FDFDFB" opacity="1.000000" stroke="none" 
	d="
M231.000000,411.000000 
	C154.000000,411.000000 77.500000,411.000000 1.000000,411.000000 
	C1.000000,274.333344 1.000000,137.666672 1.000000,1.000000 
	C138.333328,1.000000 275.666656,1.000000 413.000000,1.000000 
	C413.000000,137.666672 413.000000,274.333344 413.000000,411.000000 
	C352.500000,411.000000 292.000000,411.000000 231.000000,411.000000 
M214.402374,232.870697 
	C211.262909,235.055054 207.780884,236.877838 205.035797,239.478470 
	C168.999664,273.618622 133.050476,307.850647 97.127594,342.110077 
	C91.686119,347.299561 91.821236,350.364746 97.304016,355.324127 
	C98.533424,356.436157 99.871559,357.455322 101.263931,358.355988 
	C157.460617,394.707336 217.524750,400.433105 279.528809,377.516296 
	C351.248077,351.008698 395.434937,284.095612 394.372559,207.572632 
	C394.099823,187.927902 390.755981,168.768692 383.262573,150.521683 
	C379.644043,141.710297 375.209167,140.250534 367.268066,144.764511 
	C329.372284,166.305771 291.470215,187.836533 253.653534,209.516052 
	C240.657913,216.966156 227.903656,224.837326 214.402374,232.870697 
M154.188110,255.685745 
	C164.399933,245.872437 174.646729,236.095154 184.808243,226.230011 
	C189.611481,221.566833 189.660629,217.000854 184.692596,212.478790 
	C180.781509,208.918777 176.302582,205.988724 172.319244,202.500931 
	C152.641998,185.271698 132.992096,168.010406 113.439140,150.640411 
	C99.614502,138.359207 85.946442,125.901474 72.235191,113.493034 
	C65.823486,107.690567 61.652660,108.104103 56.688595,115.167526 
	C55.923397,116.256348 55.230198,117.395950 54.508762,118.515327 
	C38.050640,144.052048 29.496283,172.002213 28.384003,202.369019 
	C26.758686,246.742508 39.207764,286.556366 66.514320,321.600830 
	C73.126778,330.087097 76.047050,330.115601 83.825821,322.715210 
	C107.123474,300.550934 130.388779,278.352631 154.188110,255.685745 
M214.885620,169.500183 
	C214.907486,177.829437 214.820084,186.160889 214.987503,194.487213 
	C215.110199,200.588928 219.169846,203.105103 224.794708,200.777527 
	C226.019379,200.270752 227.178741,199.590988 228.330780,198.926132 
	C271.490845,174.018539 314.649048,149.107620 357.800507,124.185127 
	C365.589111,119.686737 366.384308,115.760635 361.119690,108.458855 
	C340.171326,79.404182 313.588898,57.453030 280.242493,43.887234 
	C262.033936,36.479729 243.256119,31.714828 223.573776,31.023834 
	C217.345612,30.805183 214.863770,33.663357 214.865219,39.810905 
	C214.875366,82.707321 214.876266,125.603737 214.885620,169.500183 
M192.009460,130.503326 
	C192.049133,99.899155 192.102798,69.294991 192.115540,38.690804 
	C192.117844,33.185085 189.237152,30.497066 183.486069,31.183661 
	C178.220642,31.812273 172.962601,32.808769 167.820282,34.112434 
	C136.086121,42.157532 107.716187,56.541256 83.965126,79.365997 
	C77.831940,85.259979 78.295410,89.039749 84.650688,94.643875 
	C117.010994,123.179405 149.274139,151.825272 181.705338,180.279770 
	C183.524536,181.875854 187.198761,183.434387 188.820358,182.625687 
	C190.632919,181.721802 191.952835,178.109634 191.991943,175.652298 
	C192.226089,160.941452 192.029388,146.223724 192.009460,130.503326 
z"/>
<path fill="#020E0C" opacity="1.000000" stroke="none" 
	d="
M214.720764,232.693420 
	C227.903656,224.837326 240.657913,216.966156 253.653534,209.516052 
	C291.470215,187.836533 329.372284,166.305771 367.268066,144.764511 
	C375.209167,140.250534 379.644043,141.710297 383.262573,150.521683 
	C390.755981,168.768692 394.099823,187.927902 394.372559,207.572632 
	C395.434937,284.095612 351.248077,351.008698 279.528809,377.516296 
	C217.524750,400.433105 157.460617,394.707336 101.263931,358.355988 
	C99.871559,357.455322 98.533424,356.436157 97.304016,355.324127 
	C91.821236,350.364746 91.686119,347.299561 97.127594,342.110077 
	C133.050476,307.850647 168.999664,273.618622 205.035797,239.478470 
	C207.780884,236.877838 211.262909,235.055054 214.720764,232.693420 
M367.935272,236.573090 
	C369.954926,220.417633 370.505035,204.293320 366.827820,188.271393 
	C365.649078,183.135513 362.228882,180.758606 357.525146,181.710983 
	C352.566895,182.714890 350.599365,185.922180 351.543304,191.341965 
	C352.535187,197.037170 353.952515,202.709351 354.341919,208.448715 
	C355.452209,224.812271 353.050507,240.802887 348.334412,256.487122 
	C347.856018,258.078125 347.462158,260.567932 348.299744,261.505524 
	C350.243835,263.681824 353.217285,266.832306 355.309784,266.516388 
	C358.101257,266.094971 361.903839,263.212463 362.718506,260.592896 
	C365.053314,253.085129 366.100494,245.176956 367.935272,236.573090 
M304.611145,243.383667 
	C303.441132,250.137421 306.249237,254.873779 311.966064,255.788971 
	C317.265106,256.637299 322.157776,253.531677 323.447021,248.501480 
	C324.637939,243.854889 321.887115,238.600449 317.288818,236.738419 
	C312.321503,234.726959 308.007416,236.774628 304.611145,243.383667 
M293.264191,316.051392 
	C296.577484,320.955017 300.741364,322.563477 305.403534,320.740753 
	C309.508209,319.135986 312.072083,314.746552 311.426697,310.428772 
	C310.596527,304.874481 305.233582,301.015259 299.910706,302.141785 
	C294.298920,303.329437 291.503906,308.674591 293.264191,316.051392 
z"/>
<path fill="#030E0C" opacity="1.000000" stroke="none" 
	d="
M153.927399,255.926666 
	C130.388779,278.352631 107.123474,300.550934 83.825821,322.715210 
	C76.047050,330.115601 73.126778,330.087097 66.514320,321.600830 
	C39.207764,286.556366 26.758686,246.742508 28.384003,202.369019 
	C29.496283,172.002213 38.050640,144.052048 54.508762,118.515327 
	C55.230198,117.395950 55.923397,116.256348 56.688595,115.167526 
	C61.652660,108.104103 65.823486,107.690567 72.235191,113.493034 
	C85.946442,125.901474 99.614502,138.359207 113.439140,150.640411 
	C132.992096,168.010406 152.641998,185.271698 172.319244,202.500931 
	C176.302582,205.988724 180.781509,208.918777 184.692596,212.478790 
	C189.660629,217.000854 189.611481,221.566833 184.808243,226.230011 
	C174.646729,236.095154 164.399933,245.872437 153.927399,255.926666 
z"/>
<path fill="#05100E" opacity="1.000000" stroke="none" 
	d="
M214.882874,169.000168 
	C214.876266,125.603737 214.875366,82.707321 214.865219,39.810905 
	C214.863770,33.663357 217.345612,30.805183 223.573776,31.023834 
	C243.256119,31.714828 262.033936,36.479729 280.242493,43.887234 
	C313.588898,57.453030 340.171326,79.404182 361.119690,108.458855 
	C366.384308,115.760635 365.589111,119.686737 357.800507,124.185127 
	C314.649048,149.107620 271.490845,174.018539 228.330780,198.926132 
	C227.178741,199.590988 226.019379,200.270752 224.794708,200.777527 
	C219.169846,203.105103 215.110199,200.588928 214.987503,194.487213 
	C214.820084,186.160889 214.907486,177.829437 214.882874,169.000168 
M280.465485,74.784981 
	C285.329407,77.504944 290.431793,79.876549 295.011261,83.011993 
	C307.381104,91.481361 318.916351,100.879440 327.803375,113.232643 
	C331.526642,118.408058 334.789886,118.630791 338.950043,115.182640 
	C342.651581,112.114616 342.986511,108.982880 338.880127,104.556473 
	C330.708679,95.748268 322.740906,86.593727 313.595490,78.878502 
	C293.099670,61.587940 268.780518,52.048763 242.741867,46.610008 
	C237.159241,45.443947 232.846344,47.868629 231.954758,52.502071 
	C231.043396,57.238312 234.554749,61.782108 240.197021,62.177662 
	C254.407700,63.173901 267.252563,68.251907 280.465485,74.784981 
M278.855743,115.325699 
	C278.111176,114.957588 277.399689,114.484268 276.616730,114.238342 
	C271.264099,112.557014 265.971344,115.238945 264.204590,120.483101 
	C262.553101,125.385086 264.786560,130.922791 269.141907,132.724670 
	C274.181213,134.809525 280.297028,132.244278 282.382263,127.049751 
	C284.148712,122.649437 282.905518,118.928146 278.855743,115.325699 
z"/>
<path fill="#040F0C" opacity="1.000000" stroke="none" 
	d="
M191.993317,131.005829 
	C192.029388,146.223724 192.226089,160.941452 191.991943,175.652298 
	C191.952835,178.109634 190.632919,181.721802 188.820358,182.625687 
	C187.198761,183.434387 183.524536,181.875854 181.705338,180.279770 
	C149.274139,151.825272 117.010994,123.179405 84.650688,94.643875 
	C78.295410,89.039749 77.831940,85.259979 83.965126,79.365997 
	C107.716187,56.541256 136.086121,42.157532 167.820282,34.112434 
	C172.962601,32.808769 178.220642,31.812273 183.486069,31.183661 
	C189.237152,30.497066 192.117844,33.185085 192.115540,38.690804 
	C192.102798,69.294991 192.049133,99.899155 191.993317,131.005829 
z"/>
<path fill="#F2F4F1" opacity="1.000000" stroke="none" 
	d="
M367.794556,236.999634 
	C366.100494,245.176956 365.053314,253.085129 362.718506,260.592896 
	C361.903839,263.212463 358.101257,266.094971 355.309784,266.516388 
	C353.217285,266.832306 350.243835,263.681824 348.299744,261.505524 
	C347.462158,260.567932 347.856018,258.078125 348.334412,256.487122 
	C353.050507,240.802887 355.452209,224.812271 354.341919,208.448715 
	C353.952515,202.709351 352.535187,197.037170 351.543304,191.341965 
	C350.599365,185.922180 352.566895,182.714890 357.525146,181.710983 
	C362.228882,180.758606 365.649078,183.135513 366.827820,188.271393 
	C370.505035,204.293320 369.954926,220.417633 367.794556,236.999634 
z"/>
<path fill="#F2F4F3" opacity="1.000000" stroke="none" 
	d="
M304.735718,243.010620 
	C308.007416,236.774628 312.321503,234.726959 317.288818,236.738419 
	C321.887115,238.600449 324.637939,243.854889 323.447021,248.501480 
	C322.157776,253.531677 317.265106,256.637299 311.966064,255.788971 
	C306.249237,254.873779 303.441132,250.137421 304.735718,243.010620 
z"/>
<path fill="#F2F3F3" opacity="1.000000" stroke="none" 
	d="
M293.138702,315.691895 
	C291.503906,308.674591 294.298920,303.329437 299.910706,302.141785 
	C305.233582,301.015259 310.596527,304.874481 311.426697,310.428772 
	C312.072083,314.746552 309.508209,319.135986 305.403534,320.740753 
	C300.741364,322.563477 296.577484,320.955017 293.138702,315.691895 
z"/>
<path fill="#F2F3F1" opacity="1.000000" stroke="none" 
	d="
M280.094025,74.710899 
	C267.252563,68.251907 254.407700,63.173901 240.197021,62.177662 
	C234.554749,61.782108 231.043396,57.238312 231.954758,52.502071 
	C232.846344,47.868629 237.159241,45.443947 242.741867,46.610008 
	C268.780518,52.048763 293.099670,61.587940 313.595490,78.878502 
	C322.740906,86.593727 330.708679,95.748268 338.880127,104.556473 
	C342.986511,108.982880 342.651581,112.114616 338.950043,115.182640 
	C334.789886,118.630791 331.526642,118.408058 327.803375,113.232643 
	C318.916351,100.879440 307.381104,91.481361 295.011261,83.011993 
	C290.431793,79.876549 285.329407,77.504944 280.094025,74.710899 
z"/>
<path fill="#F5F8F5" opacity="1.000000" stroke="none" 
	d="
M279.165588,115.574097 
	C282.905518,118.928146 284.148712,122.649437 282.382263,127.049751 
	C280.297028,132.244278 274.181213,134.809525 269.141907,132.724670 
	C264.786560,130.922791 262.553101,125.385086 264.204590,120.483101 
	C265.971344,115.238945 271.264099,112.557014 276.616730,114.238342 
	C277.399689,114.484268 278.111176,114.957588 279.165588,115.574097 
z"/>
</svg>
