<svg version="1.1" viewBox="0.0 0.0 239.66141732283464 241.11548556430446" fill="none" stroke="none" stroke-linecap="square" stroke-miterlimit="10" xmlns:xlink="http://www.w3.org/1999/xlink" xmlns="http://www.w3.org/2000/svg"><clipPath id="p.0"><path d="m0 0l239.66142 0l0 241.11548l-239.66142 0l0 -241.11548z" clip-rule="nonzero"/></clipPath><g clip-path="url(#p.0)"><path fill="#000000" fill-opacity="0.0" d="m0 0l239.66142 0l0 241.11548l-239.66142 0z" fill-rule="evenodd"/><path fill="#666666" fill-opacity="0.3608" d="m6.383202 8.083989l224.94487 0l-224.94487 224.94489z" fill-rule="evenodd"/><path stroke="#fffb00" stroke-width="8.0" stroke-linejoin="round" stroke-linecap="butt" d="m6.383202 8.083989l224.94487 0l-224.94487 224.94489z" fill-rule="evenodd"/><path fill="#434343" d="m235.50131 237.2021l-233.29134 0l233.29134 -233.29134z" fill-rule="evenodd"/><path stroke="#434343" stroke-width="1.0" stroke-linejoin="round" stroke-linecap="butt" d="m235.50131 237.2021l-233.29134 0l233.29134 -233.29134z" fill-rule="evenodd"/><path fill="#000000" fill-opacity="0.0" d="m243.08514 136.54057l-184.69292 0l0 100.66142l184.69292 0z" fill-rule="evenodd"/><path fill="#fffb00" d="m96.80438 209.19003q-3.78125 0 -6.84375 -1.171875q-3.0625 -1.171875 -5.21875 -3.78125q-2.15625 -2.609375 -3.359375 -6.71875q-1.203125 -4.109375 -1.203125 -9.984375q0 -5.875 1.203125 -9.984375q1.203125 -4.125 3.359375 -6.734375q2.15625 -2.609375 5.21875 -3.765625q3.0625 -1.171875 6.84375 -1.171875q3.78125 0 6.828125 1.171875q3.0625 1.15625 5.21875 3.765625q2.171875 2.609375 3.359375 6.734375q1.203125 4.109375 1.203125 9.984375q0 5.875 -1.203125 9.984375q-1.1875 4.109375 -3.359375 6.71875q-2.15625 2.609375 -5.21875 3.78125q-3.046875 1.171875 -6.828125 1.171875zm0 -7.5625q3.59375 0 5.546875 -2.15625q1.953125 -2.15625 1.953125 -6.484375l0 -10.921875q0 -4.3125 -1.953125 -6.46875q-1.953125 -2.171875 -5.546875 -2.171875q-3.609375 0 -5.5625 2.171875q-1.9375 2.15625 -1.9375 6.46875l0 10.921875q0 4.328125 1.9375 6.484375q1.953125 2.15625 5.5625 2.15625zm23.332458 6.84375l0 -41.875l18.125 0q5.640625 0 8.578125 3.59375q2.9375 3.59375 2.9375 9.59375q0 6.0 -2.9375 9.609375q-2.9375 3.59375 -8.578125 3.59375l-9.546875 0l0 15.484375l-8.578125 0zm8.578125 -22.984375l8.46875 0q1.734375 0 2.71875 -0.890625q1.0 -0.90625 1.0 -3.0l0 -3.609375q0 -2.09375 -1.0 -2.984375q-0.984375 -0.90625 -2.71875 -0.90625l-8.46875 0l0 11.390625zm27.121841 22.984375l0 -41.875l25.921875 0l0 7.5l-17.34375 0l0 9.46875l14.703125 0l0 7.453125l-14.703125 0l0 9.953125l17.34375 0l0 7.5l-25.921875 0zm44.096222 -22.4375l-2.640625 -6.65625l-0.953125 0l0.484375 7.015625l0 22.078125l-8.046875 0l0 -41.875l9.359375 0l10.5625 22.4375l2.640625 6.65625l0.953125 0l-0.46875 -7.015625l0 -22.078125l8.03125 0l0 41.875l-9.359375 0l-10.5625 -22.4375z" fill-rule="nonzero"/></g></svg>