<svg version="1.1" viewBox="0.0 0.0 251.5301837270341 204.23097112860893" fill="none" stroke="none" stroke-linecap="square" stroke-miterlimit="10" xmlns:xlink="http://www.w3.org/1999/xlink" xmlns="http://www.w3.org/2000/svg"><clipPath id="p.0"><path d="m0 0l251.53018 0l0 204.23097l-251.53018 0l0 -204.23097z" clip-rule="nonzero"/></clipPath><g clip-path="url(#p.0)"><path fill="#000000" fill-opacity="0.0" d="m0 0l251.53018 0l0 204.23097l-251.53018 0z" fill-rule="evenodd"/><path fill="#666666" fill-opacity="0.3608" d="m2.4868767 52.280945l6.2588587 0l0 100.14174l-6.2588587 0zm12.517716 0l12.517717 0l0 100.14174l-12.517717 0zm18.776573 0l114.737206 0l0 -50.070866l100.14174 100.14173l-100.14174 100.14174l0 -50.07086l-114.737206 0z" fill-rule="evenodd"/><path stroke="#fffb00" stroke-width="3.0" stroke-linejoin="round" stroke-linecap="butt" d="m2.4868767 52.280945l6.2588587 0l0 100.14174l-6.2588587 0zm12.517716 0l12.517717 0l0 100.14174l-12.517717 0zm18.776573 0l114.737206 0l0 -50.070866l100.14174 100.14173l-100.14174 100.14174l0 -50.07086l-114.737206 0z" fill-rule="evenodd"/><path fill="#000000" fill-opacity="0.0" d="m34.51181 52.020996l183.90552 0l0 100.66142l-183.90552 0z" fill-rule="evenodd"/><path fill="#fffb00" d="m71.43901 101.514206l-2.640625 -6.65625l-0.953125 0l0.484375 7.015625l0 22.078125l-8.046875 0l0 -41.875l9.359375 0l10.5625 22.4375l2.640625 6.65625l0.953125 0l-0.46875 -7.015625l0 -22.078125l8.03125 0l0 41.875l-9.359375 0l-10.5625 -22.4375zm28.08371 22.4375l0 -41.875l25.921875 0l0 7.5l-17.34375 0l0 9.46875l14.703125 0l0 7.453125l-14.703125 0l0 9.953125l17.34375 0l0 7.5l-25.921875 0zm64.67435 0l-9.890625 0l-7.625 -15.0l-0.84375 0l-7.375 15.0l-9.171875 0l11.8125 -21.484375l-11.15625 -20.390625l9.890625 0l6.734375 13.734375l0.953125 0l6.78125 -13.734375l9.171875 0l-11.328125 20.390625l12.046875 21.484375zm21.00122 -34.375l0 34.375l-8.578125 0l0 -34.375l-10.015625 0l0 -7.5l28.625 0l0 7.5l-10.03125 0z" fill-rule="nonzero"/></g></svg>