<svg version="1.1" viewBox="0.0 0.0 239.66141732283464 241.11548556430446" fill="none" stroke="none" stroke-linecap="square" stroke-miterlimit="10" xmlns:xlink="http://www.w3.org/1999/xlink" xmlns="http://www.w3.org/2000/svg"><clipPath id="p.0"><path d="m0 0l239.66142 0l0 241.11548l-239.66142 0l0 -241.11548z" clip-rule="nonzero"/></clipPath><g clip-path="url(#p.0)"><path fill="#000000" fill-opacity="0.0" d="m0 0l239.66142 0l0 241.11548l-239.66142 0z" fill-rule="evenodd"/><path fill="#666666" fill-opacity="0.3608" d="m6.383202 8.083989l224.94487 0l-224.94487 224.94489z" fill-rule="evenodd"/><path stroke="#fffb00" stroke-width="8.0" stroke-linejoin="round" stroke-linecap="butt" d="m6.383202 8.083989l224.94487 0l-224.94487 224.94489z" fill-rule="evenodd"/><path fill="#434343" d="m235.50131 237.2021l-233.29134 0l233.29134 -233.29134z" fill-rule="evenodd"/><path stroke="#434343" stroke-width="1.0" stroke-linejoin="round" stroke-linecap="butt" d="m235.50131 237.2021l-233.29134 0l233.29134 -233.29134z" fill-rule="evenodd"/><path fill="#000000" fill-opacity="0.0" d="m243.08514 136.54057l-184.69292 0l0 100.66142l184.69292 0z" fill-rule="evenodd"/><path fill="#fffb00" d="m95.71313 186.03378l-2.640625 -6.65625l-0.953125 0l0.484375 7.015625l0 22.078125l-8.046875 0l0 -41.875l9.359375 0l10.5625 22.4375l2.640625 6.65625l0.953125 0l-0.46875 -7.015625l0 -22.078125l8.03125 0l0 41.875l-9.359375 0l-10.5625 -22.4375zm28.08371 22.4375l0 -41.875l25.921867 0l0 7.5l-17.34375 0l0 9.46875l14.703125 0l0 7.453125l-14.703125 0l0 9.953125l17.34375 0l0 7.5l-25.921867 0zm64.67434 0l-9.890625 0l-7.625 -15.0l-0.84375 0l-7.375 15.0l-9.171875 0l11.8125 -21.484375l-11.15625 -20.390625l9.890625 0l6.734375 13.734375l0.953125 0l6.78125 -13.734375l9.171875 0l-11.328125 20.390625l12.046875 21.484375zm21.00122 -34.375l0 34.375l-8.578125 0l0 -34.375l-10.015625 0l0 -7.5l28.625 0l0 7.5l-10.03125 0z" fill-rule="nonzero"/></g></svg>